<svg version="1.1" id="Layer_1" xmlns="http://www.w3.org/2000/svg" xmlns:xlink="http://www.w3.org/1999/xlink" x="0px" y="0px"
	 width="100%" viewBox="0 0 5000 5000" enable-background="new 0 0 5000 5000" xml:space="preserve">
<path fill="#FFFFFF" opacity="1.000000" stroke="none" 
	d="
M4.000000,2576.000000 
	C4.000000,2530.583008 4.000000,2485.166260 5.478999,2437.325684 
	C11.159828,2432.632568 11.084350,2428.623535 11.226892,2424.633789 
	C12.120937,2399.607422 13.092712,2374.583740 13.904542,2349.554688 
	C13.963846,2347.726318 12.965129,2345.864014 12.446405,2342.322266 
	C13.325599,2328.429199 14.216695,2316.231201 15.944134,2303.568359 
	C16.562387,2300.734863 16.344297,2298.366943 16.299671,2294.368164 
	C17.331234,2281.835449 18.189337,2270.933838 19.953627,2259.363281 
	C20.670385,2255.128418 20.480957,2251.562256 20.380928,2246.415039 
	C21.465706,2236.563477 22.461086,2228.292480 24.287960,2219.268555 
	C24.933599,2215.007080 24.747747,2211.498291 24.715229,2206.407715 
	C25.605087,2199.600342 26.341612,2194.375000 27.999876,2188.218018 
	C28.977388,2183.004395 29.033165,2178.722900 29.289724,2172.908203 
	C30.187237,2166.255859 30.883968,2161.136475 32.346149,2155.448242 
	C32.881500,2152.583984 32.651402,2150.288818 32.596329,2146.379395 
	C36.281403,2123.186279 39.791443,2101.606934 44.118515,2079.517334 
	C44.796509,2076.668457 44.657471,2074.329834 44.721718,2070.623047 
	C45.479664,2066.544678 46.034321,2063.834961 47.453178,2060.771973 
	C48.254177,2057.612061 48.190968,2054.805420 48.365028,2050.492676 
	C49.503185,2045.026367 50.404076,2041.065552 52.057575,2036.614746 
	C52.849957,2033.412476 52.889725,2030.700317 53.256966,2026.643921 
	C54.049957,2022.579834 54.515476,2019.860107 55.891434,2016.359863 
	C56.820248,2012.538330 56.838623,2009.497559 57.083321,2005.140137 
	C57.932865,2001.226318 58.556091,1998.629150 60.127926,1995.080444 
	C61.016663,1991.572144 60.956791,1989.015381 61.419518,1984.908447 
	C67.707108,1958.249023 73.472099,1933.139771 80.082169,1907.528809 
	C80.913467,1904.681274 80.899696,1902.335449 81.146576,1898.829590 
	C81.893066,1896.161133 82.378891,1894.652588 83.820885,1892.402588 
	C85.008308,1888.602661 85.239563,1885.544312 85.862305,1880.961426 
	C110.215935,1785.313477 140.026154,1693.061646 175.222672,1602.556152 
	C197.618210,1544.967529 221.351730,1487.942993 250.213165,1432.416260 
	C257.906036,1426.413086 264.483429,1420.783813 270.587097,1414.680908 
	C416.703461,1268.579346 562.771729,1122.429810 708.842163,976.282349 
	C747.008972,938.095520 785.130493,899.863403 823.347534,861.726807 
	C826.954956,858.126892 831.099487,855.065125 836.000610,850.898254 
	C853.441284,867.953979 869.761292,884.498657 886.209106,900.908264 
	C902.252563,916.914429 918.262878,932.953796 934.287720,948.978638 
	C950.783936,965.474792 967.288086,981.963074 983.773926,998.469482 
	C999.788818,1014.504333 1015.775940,1030.566772 1031.791382,1046.601074 
	C1048.278076,1063.106689 1064.784546,1079.592529 1081.281372,1096.088013 
	C1097.778320,1112.583496 1114.274414,1129.079712 1130.770630,1145.575928 
	C1146.795532,1161.600708 1162.828491,1177.617432 1178.842285,1193.653320 
	C1195.326904,1210.161011 1211.783936,1226.696289 1228.268921,1243.203491 
	C1244.754028,1259.710815 1261.258789,1276.198242 1277.755005,1292.694458 
	C1293.779785,1308.719360 1309.805176,1324.743774 1325.829468,1340.769165 
	C1342.325195,1357.265747 1358.826904,1373.756348 1375.313110,1390.262451 
	C1391.328369,1406.296875 1407.149658,1422.530029 1423.383423,1438.339844 
	C1439.847412,1454.374268 1454.941162,1471.905640 1474.614258,1487.660156 
	C1476.821411,1479.219360 1476.028687,1472.686646 1476.035400,1466.306030 
	C1476.098022,1406.316895 1476.005005,1346.327637 1476.161621,1286.338867 
	C1476.180176,1279.227905 1474.475952,1271.735962 1478.219727,1265.207397 
	C1496.003052,1262.322998 1698.661011,1261.265503 1850.339478,1263.228271 
	C1855.506348,1263.295044 1860.665405,1263.978760 1866.317505,1264.412354 
	C1869.215088,1272.952637 1868.152588,1280.965332 1868.155273,1288.789307 
	C1868.218628,1475.422241 1868.188477,1662.055054 1868.244629,1848.687988 
	C1868.248047,1859.985962 1868.827271,1871.283813 1869.138550,1882.581665 
	C1877.080078,1891.518433 1884.592529,1900.883667 1893.026245,1909.328979 
	C2087.545898,2104.118652 2282.197510,2298.776611 2476.723633,2493.560059 
	C2499.206787,2516.072998 2495.384766,2507.055176 2495.387695,2538.479980 
	C2495.466797,3351.666260 2495.448486,4164.852539 2495.472900,4978.038574 
	C2495.473145,4986.692383 2495.816650,4995.346191 2496.000000,5004.000000 
	C2435.916504,5004.000000 2375.832764,5004.000000 2314.806396,5002.775391 
	C2311.183838,4997.995117 2307.145996,4997.697754 2303.679199,4998.821777 
	C2300.117920,4999.976562 2301.985107,5002.343750 2304.000000,5004.000000 
	C2295.833252,5004.000000 2287.666748,5004.000000 2279.370605,5002.645020 
	C2279.152100,4995.276855 2274.367188,4995.963867 2270.708008,4995.623535 
	C2151.786865,4984.561035 2034.416260,4964.528809 1918.272461,4936.625488 
	C1775.346313,4902.288574 1636.790894,4855.215332 1502.303955,4796.124512 
	C1365.968628,4736.221680 1236.149780,4664.430664 1112.626099,4581.199219 
	C977.390320,4490.076172 852.314087,4386.675781 737.094910,4271.352539 
	C689.066711,4223.281250 643.125610,4173.252441 599.229065,4121.353516 
	C512.989502,4019.392578 435.200226,3911.363037 366.097321,3797.093994 
	C312.597839,3708.626953 264.817841,3617.157959 222.777145,3522.704346 
	C201.378357,3474.627686 181.089951,3426.092041 163.717529,3375.458496 
	C163.111526,3373.385498 162.136536,3372.378906 160.624069,3369.999268 
	C153.994781,3351.541748 147.903000,3334.457031 142.281601,3316.246094 
	C141.291992,3312.368408 139.832001,3309.617188 137.815521,3305.469727 
	C134.223663,3294.662598 131.188263,3285.251709 128.582092,3275.025879 
	C129.087204,3272.741943 128.412720,3271.824951 126.443802,3270.122070 
	C124.134537,3263.295654 122.369316,3257.807129 121.176422,3251.867432 
	C120.998848,3250.424805 120.248955,3249.433350 118.987892,3247.023926 
	C111.260086,3221.064209 104.043457,3196.522217 97.453384,3171.328857 
	C96.894501,3168.066406 95.709053,3165.455322 94.018204,3161.308594 
	C85.280487,3126.508545 77.048164,3093.244141 69.438828,3059.261963 
	C69.105652,3056.360352 68.149490,3054.176514 66.827515,3050.511719 
	C63.231373,3034.014893 60.001053,3018.999023 57.420666,3003.293457 
	C57.195923,3000.401611 56.321243,2998.198975 55.059311,2994.438477 
	C52.638626,2982.384277 50.605206,2971.888428 49.100513,2960.330078 
	C48.687389,2956.453369 47.745541,2953.639160 46.441612,2949.491699 
	C45.627445,2945.434326 45.175358,2942.709717 45.366413,2939.294434 
	C45.155621,2936.401611 44.301682,2934.198975 43.191879,2930.417969 
	C40.716949,2915.224121 38.497890,2901.608398 36.913330,2887.275391 
	C36.716297,2884.368652 35.884766,2882.179443 34.783413,2878.666504 
	C33.859138,2872.890869 33.204689,2868.439209 33.238480,2863.112061 
	C33.018803,2858.823486 32.110882,2855.409912 30.879517,2850.588379 
	C29.761700,2843.451904 28.967321,2837.723389 28.807137,2831.387939 
	C28.709770,2828.135010 27.978209,2825.489014 26.925125,2821.234863 
	C25.804502,2813.082275 25.005402,2806.538330 24.852806,2799.088867 
	C24.680401,2794.786865 23.861488,2791.390381 22.769739,2786.516602 
	C21.795847,2778.022705 21.094790,2771.006592 21.064163,2763.103760 
	C20.890368,2758.810303 20.046143,2755.403320 18.948215,2750.395996 
	C17.888241,2737.861572 17.081964,2726.927246 16.830536,2715.236816 
	C16.674475,2712.318359 15.963568,2710.156006 15.000706,2706.349121 
	C13.890896,2691.132568 13.033042,2677.561035 12.791042,2662.966309 
	C12.875838,2657.305176 12.344781,2652.667236 11.790112,2646.449219 
	C11.563111,2640.668213 11.359724,2636.467529 11.446683,2630.416748 
	C11.516946,2613.591309 11.304297,2598.616211 11.072358,2583.640869 
	C11.000499,2579.001465 8.527377,2576.538574 4.000000,2576.000000 
z"/>
<path fill="#65D872" opacity="1.000000" stroke="none" 
	d="
M5004.000000,2248.000000 
	C5004.000000,2262.771729 5004.000000,2277.543213 5002.451660,2294.642334 
	C5000.657227,2304.620117 5000.411133,2312.270752 5000.095215,2321.790771 
	C5000.027832,2339.541504 5000.004395,2355.422363 5000.049805,2371.303467 
	C5000.062500,2375.911865 4999.760254,2380.679443 5004.000000,2384.000000 
	C5004.000000,2464.083496 5004.000000,2544.167236 5002.836914,2627.313477 
	C5001.114746,2634.928223 5000.121582,2639.476074 5000.074707,2644.033203 
	C4999.911621,2659.926514 5000.075684,2675.822998 5000.120605,2693.415527 
	C5000.108398,2700.290283 5000.109863,2705.468018 5000.068359,2710.645264 
	C5000.045898,2713.435059 5000.774902,2715.620117 5004.000000,2716.000000 
	C5004.000000,2729.445068 5004.000000,2742.890381 5002.454102,2757.261230 
	C4999.495117,2763.145996 4997.431152,2768.020020 4996.772461,2773.077148 
	C4992.169434,2808.412598 4988.063477,2843.813965 4983.328613,2879.131104 
	C4981.854492,2890.128906 4978.931152,2900.932617 4974.747559,2911.915527 
	C4922.187988,2912.061035 4871.551270,2912.101318 4820.915039,2912.192627 
	C4815.591309,2912.202393 4810.235352,2912.207031 4804.955566,2912.779541 
	C4800.579590,2913.254150 4797.550781,2916.260254 4796.995605,2920.557617 
	C4796.315918,2925.816406 4796.334961,2931.186035 4796.330078,2936.508301 
	C4796.285156,2985.167969 4796.342285,3033.827881 4796.213379,3082.487305 
	C4796.204102,3086.076660 4797.925293,3090.453125 4792.378418,3093.773682 
	C4787.870605,3089.574463 4782.988770,3085.299316 4778.410156,3080.721436 
	C4647.846680,2950.163818 4517.314941,2819.574219 4386.774902,2688.992676 
	C4324.097168,2626.294922 4261.434570,2563.581543 4198.685059,2500.955322 
	C4194.104004,2496.383301 4190.359375,2490.505615 4182.639648,2488.477539 
	C4165.977051,2502.731445 4151.280273,2519.037598 4135.661133,2534.364014 
	C4119.961914,2549.769531 4104.520996,2565.439453 4088.966797,2580.993652 
	C4073.884033,2596.076416 4058.798584,2611.156494 4043.719727,2626.243164 
	C4028.169922,2641.801758 4012.629883,2657.370117 3997.079834,2672.928467 
	C3981.529541,2688.486328 3965.972168,2704.037354 3950.417969,2719.591309 
	C3934.864014,2735.145752 3919.310059,2750.700195 3903.756348,2766.254883 
	C3888.673584,2781.337646 3873.589111,2796.418701 3858.508545,2811.503906 
	C3842.956787,2827.060547 3827.568359,2842.784424 3811.815674,2858.134766 
	C3796.182617,2873.368164 3781.809814,2889.961182 3764.580566,2903.833740 
	C3756.711426,2900.643311 3752.435303,2894.434814 3747.367432,2889.381836 
	C3693.087158,2835.254639 3638.877197,2781.056641 3584.752197,2726.774170 
	C3565.087402,2707.052490 3568.277588,2713.590088 3568.264404,2686.927490 
	C3568.168213,2492.954834 3568.213135,2298.982178 3568.213135,2105.009521 
	C3568.213135,2099.677002 3568.436523,2094.331299 3568.134277,2089.016113 
	C3567.918213,2085.213379 3566.996094,2081.450439 3566.385986,2077.651123 
	C3558.302979,2074.786133 3550.946045,2075.714355 3543.739014,2075.711426 
	C3411.757568,2075.660156 3279.776367,2075.673584 3147.794922,2075.676025 
	C3143.795654,2075.676025 3139.750977,2075.339111 3135.810059,2075.826660 
	C3132.075195,2076.288086 3128.448730,2077.627441 3123.755127,2078.845215 
	C3123.755127,2086.891113 3123.755371,2094.177002 3123.755127,2101.463135 
	C3123.754639,2148.789795 3123.825439,2196.116699 3123.649170,2243.442627 
	C3123.630615,2248.408203 3125.670898,2254.156494 3120.038330,2258.763428 
	C3112.025146,2256.505859 3107.602295,2249.486816 3102.177734,2244.065186 
	C2911.231689,2053.227539 2720.373047,1862.302734 2529.500977,1671.390991 
	C2525.259277,1667.148438 2521.167725,1662.737549 2516.704834,1658.741699 
	C2513.895752,1656.226929 2510.523926,1654.340454 2506.755615,1651.720703 
	C2500.833740,1657.513550 2495.579590,1662.555176 2490.431885,1667.703491 
	C2364.120117,1794.028564 2237.820068,1920.365845 2111.514648,2046.697632 
	C2107.273193,2050.939941 2103.148926,2055.317139 2098.682861,2059.309814 
	C2096.299805,2061.439941 2093.301025,2062.881592 2089.699707,2065.200928 
	C2085.328857,2061.639893 2080.981689,2058.679932 2077.322754,2055.030029 
	C2020.221191,1998.067871 1963.304199,1940.920410 1906.054810,1884.107666 
	C1898.901367,1877.008545 1894.591187,1869.782104 1895.775146,1859.529541 
	C1896.306885,1854.924927 1895.863892,1850.207886 1895.863892,1845.541870 
	C1895.863770,1652.902344 1895.864258,1460.262939 1895.863037,1267.623413 
	C1895.863037,1261.624268 1896.015259,1255.618530 1895.780762,1249.628296 
	C1895.630859,1245.799683 1894.898926,1241.993896 1894.424316,1238.148193 
	C1886.416626,1234.751343 1879.018433,1235.959961 1871.855469,1235.952881 
	C1779.201904,1235.861938 1686.548218,1235.892578 1593.894653,1235.892700 
	C1551.900635,1235.892822 1509.906372,1235.844238 1467.912598,1235.950806 
	C1462.112183,1235.965454 1456.313599,1236.749512 1450.282959,1237.194458 
	C1447.293579,1245.374756 1448.230957,1252.727661 1448.220337,1259.913696 
	C1448.146484,1309.906616 1448.220337,1359.899658 1448.092163,1409.892212 
	C1448.083008,1413.489746 1449.809937,1417.802368 1444.483643,1421.403687 
	C1439.493530,1416.671021 1434.197754,1411.875854 1429.152222,1406.830444 
	C1236.844971,1214.525879 1044.547241,1022.211792 852.295654,829.851685 
	C834.292419,811.838257 834.717407,811.171570 816.531250,829.412048 
	C753.936951,892.193420 691.202820,954.835327 628.522156,1017.530579 
	C522.483398,1123.593872 416.451599,1229.664185 310.383911,1335.698730 
	C305.692413,1340.388794 300.741394,1344.831543 295.671326,1349.105103 
	C295.306854,1349.412231 292.965881,1347.374512 291.769592,1345.077393 
	C293.717072,1340.132080 295.302246,1336.463501 297.180328,1332.951416 
	C370.482941,1195.868042 455.402679,1066.421753 552.399841,944.923218 
	C635.137390,841.286377 725.614441,744.856506 823.564026,655.512573 
	C931.988464,556.614136 1048.308105,467.945557 1172.372192,389.528168 
	C1193.681763,376.059113 1215.773926,363.828613 1238.825439,350.962982 
	C1241.320435,349.676788 1242.494507,348.453583 1243.652588,347.438721 
	C1243.636597,347.647034 1243.344727,347.348053 1244.647827,347.459778 
	C1247.704712,345.954346 1249.458618,344.337189 1251.635742,343.140259 
	C1252.059082,343.560516 1251.116699,342.829437 1252.465576,343.079041 
	C1258.857056,342.881653 1262.177002,340.241455 1263.849854,335.646729 
	C1263.877930,335.825134 1263.568481,335.638794 1264.853027,335.700928 
	C1267.957886,334.206329 1269.778442,332.649628 1271.638428,331.309570 
	C1271.678101,331.526276 1271.304688,331.292480 1272.721680,331.415039 
	C1281.226685,329.266174 1288.564087,327.359375 1291.831543,319.643433 
	C1291.869995,319.835541 1291.557861,319.598633 1292.838745,319.678284 
	C1295.975464,318.241638 1297.831177,316.725403 1299.691406,315.404419 
	C1299.695923,315.599701 1299.361450,315.397980 1300.666748,315.505920 
	C1303.776001,314.028687 1305.579956,312.443542 1307.555298,311.150818 
	C1307.726685,311.443237 1307.176758,311.046783 1308.593018,311.226593 
	C1317.186523,309.324158 1324.420898,307.328979 1327.927734,299.790070 
	C1327.946289,299.943298 1327.694702,299.764496 1329.117554,299.872131 
	C1336.675415,299.759155 1341.556274,297.610168 1343.805664,291.560486 
	C1343.834473,291.750000 1343.507324,291.550171 1344.790039,291.644226 
	C1347.961914,290.249207 1349.850830,288.760132 1351.734131,287.457977 
	C1351.728516,287.644867 1351.407349,287.453308 1352.702637,287.561584 
	C1355.847412,286.126801 1357.697021,284.583740 1359.650391,283.315002 
	C1359.754150,283.589325 1359.315552,283.199799 1360.611694,283.376465 
	C1363.797852,282.051025 1365.687988,280.548920 1367.649658,279.286743 
	C1367.721191,279.526672 1367.315430,279.233307 1368.611450,279.396881 
	C1371.805542,278.065521 1373.703491,276.570587 1375.647217,275.307373 
	C1375.692749,275.539093 1375.316895,275.253052 1376.615234,275.418701 
	C1379.810059,274.081024 1381.706299,272.577728 1383.651367,271.306183 
	C1383.700073,271.537933 1383.320679,271.254303 1384.616211,271.425385 
	C1387.828979,270.115753 1389.746338,268.635040 1391.670288,267.349060 
	C1391.676880,267.543793 1391.332642,267.361267 1392.634521,267.475891 
	C1395.824585,266.082672 1397.712891,264.574799 1399.643066,263.288910 
	C1399.684937,263.510864 1399.308716,263.260895 1400.607178,263.422852 
	C1403.812134,262.091156 1405.718384,260.597534 1407.661865,259.327026 
	C1407.698975,259.550140 1407.333130,259.284058 1408.629883,259.441650 
	C1411.810913,258.088928 1413.695190,256.578552 1415.646484,255.318481 
	C1415.713501,255.568787 1415.317871,255.233948 1416.613525,255.401718 
	C1419.802856,254.069092 1421.696289,252.568710 1423.662842,251.317078 
	C1423.735840,251.565826 1423.333496,251.238708 1424.622192,251.416306 
	C1427.859741,250.149277 1429.808594,248.704651 1431.757690,247.450516 
	C1431.757935,247.641006 1431.435059,247.438889 1432.718750,247.583557 
	C1435.943604,246.284729 1437.884888,244.841232 1439.812500,243.570618 
	C1439.799072,243.743469 1439.494751,243.577240 1440.854004,243.656891 
	C1444.357910,242.228424 1446.502563,240.720322 1448.846313,239.084106 
	C1449.045410,238.956009 1449.511841,239.036362 1451.026855,239.207764 
	C1458.175659,239.299179 1461.932861,236.287216 1464.933105,231.393066 
	C1465.225464,231.150620 1465.918091,231.463165 1467.385132,231.534943 
	C1471.103638,230.076019 1473.354980,228.545303 1475.629639,227.248688 
	C1475.653076,227.482773 1475.297363,227.174698 1476.591797,227.368408 
	C1479.793091,226.074051 1481.699951,224.585999 1483.681396,223.348755 
	C1483.756104,223.599548 1483.357178,223.260727 1484.640381,223.438843 
	C1487.901001,222.223633 1489.878662,220.830322 1491.850342,219.611359 
	C1491.844360,219.785706 1491.550293,219.597870 1493.019775,219.749817 
	C1501.323853,219.113373 1507.820312,217.695312 1511.660156,211.211563 
	C1511.931274,211.597565 1511.243774,210.951431 1512.524658,211.217072 
	C1515.809448,210.104538 1517.813110,208.726349 1519.826660,207.532242 
	C1519.836670,207.716339 1519.519043,207.528809 1520.988770,207.702942 
	C1529.333130,207.160706 1535.774292,205.629349 1539.612183,199.217926 
	C1539.798584,199.582901 1539.237305,198.985565 1540.517822,199.250092 
	C1543.833740,198.183823 1545.869141,196.853027 1547.903198,195.686859 
	C1547.901978,195.851471 1547.620728,195.680313 1549.083496,195.810165 
	C1557.363892,195.157043 1563.808472,193.652527 1567.732178,187.335815 
	C1567.819580,187.569656 1567.406738,187.288849 1568.900635,187.519470 
	C1577.661499,187.313904 1584.089111,185.175827 1588.684204,178.731079 
	C1588.919312,178.616776 1589.434692,178.704453 1590.814209,178.781006 
	C1593.644531,177.794342 1595.095337,176.731110 1596.871094,175.398407 
	C1597.196045,175.128937 1598.009644,175.354919 1599.459473,175.482208 
	C1603.211670,174.178680 1605.514282,172.747864 1607.822510,171.507690 
	C1607.828369,171.698334 1607.515625,171.479813 1608.934326,171.686325 
	C1614.305664,171.873871 1617.959717,171.309937 1619.575439,167.149567 
	C1619.653198,167.415955 1619.226196,167.061371 1620.511230,167.287903 
	C1623.834351,166.187149 1625.872559,164.859863 1627.914795,163.699982 
	C1627.918823,163.867386 1627.647095,163.671570 1629.048584,163.848816 
	C1634.344727,164.001114 1637.919800,163.334839 1639.832031,159.527786 
	C1639.821533,159.705902 1639.515747,159.521820 1640.931641,159.709106 
	C1646.264771,159.863297 1649.918335,159.317764 1651.679688,155.294006 
	C1651.679199,155.492752 1651.339111,155.286789 1652.807251,155.507645 
	C1661.215210,155.292038 1667.559448,153.564819 1671.922852,147.733948 
	C1671.907471,147.889587 1671.644165,147.720688 1673.047119,147.868210 
	C1678.333740,148.016373 1681.912109,147.386581 1683.871094,143.616333 
	C1683.852539,143.784561 1683.564819,143.606308 1684.978027,143.777115 
	C1690.327393,143.972046 1693.915039,143.310684 1695.769043,139.399399 
	C1695.792725,139.606171 1695.450928,139.368637 1696.868164,139.609650 
	C1702.255493,139.903519 1705.890869,139.309036 1707.746338,135.274261 
	C1707.872925,135.522385 1707.409668,135.213013 1708.820679,135.490845 
	C1714.216919,135.928818 1717.823853,135.305389 1719.746216,131.380112 
	C1719.752686,131.581345 1719.421265,131.352570 1720.838379,131.594421 
	C1726.228516,131.936432 1729.847046,131.313690 1731.753906,127.381516 
	C1731.761230,127.578888 1731.427124,127.368217 1732.838623,127.609131 
	C1738.193604,127.965523 1741.807251,127.363106 1743.876343,123.596428 
	C1743.865112,123.769897 1743.574951,123.578522 1745.029297,123.775818 
	C1750.602417,124.017540 1754.230347,123.043083 1756.744629,118.967926 
	C1757.029297,118.769363 1757.683350,119.001534 1759.381836,119.268982 
	C1773.279419,117.226212 1785.790527,115.791115 1795.749268,107.373550 
	C1795.756958,107.570183 1795.420776,107.365555 1797.007324,107.612183 
	C1807.899902,107.626175 1816.852661,106.366707 1823.779907,99.386368 
	C1823.790039,99.579460 1823.453125,99.389717 1825.037842,99.633911 
	C1835.904297,99.597618 1844.900635,98.499611 1851.807129,91.335556 
	C1851.910889,91.551399 1851.489624,91.323540 1852.993896,91.599846 
	C1859.461182,91.829536 1864.729370,92.648117 1867.776001,87.374588 
	C1867.771484,87.562462 1867.442017,87.381561 1869.109863,87.638252 
	C1872.093262,87.886513 1873.469849,88.131638 1874.715454,87.832031 
	C1897.669556,82.310867 1920.622437,76.781723 1943.519409,71.031212 
	C1945.149170,70.621902 1946.345459,68.486237 1947.803711,67.362465 
	C1947.864136,67.571655 1947.487061,67.353638 1949.190796,67.624878 
	C1956.768433,67.111374 1962.711304,66.664421 1968.504639,65.484505 
	C1996.364746,59.810371 2024.084351,53.387569 2052.047119,48.291546 
	C2079.988037,43.199486 2108.158203,39.364288 2136.227783,34.979073 
	C2159.062988,31.411621 2181.795166,26.781412 2204.760498,24.559212 
	C2231.071289,22.013279 2257.337646,18.854788 2283.644775,16.681273 
	C2311.974365,14.340656 2340.278564,9.970252 2368.884033,11.597281 
	C2373.512939,11.860559 2378.409912,12.439878 2382.781738,11.314561 
	C2401.083252,6.603691 2419.679932,8.428108 2440.221680,8.107499 
	C2488.167969,8.116296 2534.069580,8.012497 2581.814941,7.945249 
	C2596.286133,8.298240 2608.926514,8.360434 2621.535889,9.019501 
	C2630.104248,9.467358 2638.676025,11.834145 2647.164551,11.465096 
	C2675.873291,10.216969 2704.171875,15.031309 2732.680664,16.555050 
	C2751.138428,17.541594 2769.435547,21.290712 2787.847168,23.437408 
	C2814.177979,26.507397 2840.562744,29.111834 2866.893311,32.183113 
	C2878.736816,33.564602 2890.556396,35.304752 2902.294922,37.397438 
	C2919.906006,40.536995 2937.450195,44.058537 2954.997559,47.545082 
	C2993.346436,55.164757 3031.802979,62.303036 3069.980469,70.705551 
	C3101.734131,77.694229 3133.128662,86.304756 3164.743164,93.945374 
	C3169.810059,95.169907 3175.195557,95.075890 3180.281006,95.668930 
	C3180.128174,95.746475 3180.119385,95.403763 3180.915039,96.578552 
	C3185.348877,98.238960 3188.987305,98.724571 3192.430176,99.327316 
	C3192.234863,99.444443 3192.344971,99.002213 3193.124023,100.270508 
	C3202.370850,105.600876 3210.896484,109.387878 3220.491211,107.301788 
	C3220.297363,107.418228 3220.389893,106.975716 3221.139648,108.258682 
	C3230.273926,113.645859 3238.793945,117.147568 3248.311035,115.600128 
	C3248.154053,115.696571 3248.161133,115.328316 3249.018066,116.532921 
	C3252.716797,118.130669 3255.558350,118.523819 3258.688477,118.805573 
	C3258.976562,118.694176 3259.520996,118.987396 3260.405762,120.181839 
	C3265.033936,122.063118 3268.777588,122.749962 3272.357422,123.526321 
	C3272.194092,123.615829 3272.197021,123.243271 3272.982666,124.429398 
	C3277.407959,126.141212 3281.047607,126.666908 3284.498047,127.311386 
	C3284.309082,127.430153 3284.384033,126.989845 3285.089844,128.231430 
	C3289.426758,130.037384 3293.057617,130.601761 3296.502930,131.309937 
	C3296.317383,131.453735 3296.386230,130.989059 3297.122559,132.247665 
	C3305.156738,136.577805 3312.072266,141.185211 3320.401123,139.294800 
	C3320.167480,139.419846 3320.416992,138.952194 3321.091797,140.203445 
	C3325.369873,142.103180 3328.973633,142.751648 3332.412842,143.488892 
	C3332.248535,143.577652 3332.236572,143.204468 3332.975586,144.406494 
	C3337.308594,146.247650 3340.903076,146.886765 3344.343262,147.609039 
	C3344.189453,147.692200 3344.155762,147.343674 3344.919922,148.528793 
	C3349.284424,150.301468 3352.884766,150.889038 3356.322266,151.587219 
	C3356.159424,151.697830 3356.201660,151.306564 3356.931152,152.541809 
	C3363.276123,158.076248 3369.351318,160.799957 3376.480957,159.418091 
	C3376.308594,159.513306 3376.291748,159.119675 3377.007080,160.336655 
	C3381.306885,162.202545 3384.891602,162.851456 3388.321289,163.608368 
	C3388.166748,163.716339 3388.176514,163.339279 3388.920410,164.566330 
	C3398.963623,171.947861 3409.145996,175.387619 3420.195312,175.838287 
	C3420.065918,175.915817 3420.046875,175.614487 3420.745361,176.700226 
	C3423.877197,178.234955 3426.310547,178.683929 3428.554688,179.277191 
	C3428.365723,179.421463 3428.437744,178.951324 3429.087402,180.195099 
	C3433.271240,182.192123 3436.805908,182.945404 3440.204834,183.788086 
	C3440.069336,183.877502 3440.075928,183.552994 3440.769531,184.646149 
	C3443.894287,186.152725 3446.325439,186.566147 3448.480957,187.240265 
	C3448.205078,187.500977 3448.555664,186.827606 3449.152832,188.099335 
	C3453.282959,190.147263 3456.815918,190.923447 3460.215332,191.793655 
	C3460.082031,191.887680 3460.086670,191.561462 3460.746582,192.657974 
	C3463.797607,194.310349 3466.188721,194.866211 3468.420166,195.518265 
	C3468.260742,195.614456 3468.236816,195.242966 3468.940430,196.485382 
	C3475.187256,201.981247 3481.209717,204.702164 3488.273438,203.694214 
	C3488.119629,203.783218 3488.148193,203.429169 3488.784668,204.555542 
	C3491.835205,206.220947 3494.249268,206.759979 3496.497559,207.408508 
	C3496.331543,207.518005 3496.319092,207.120728 3497.040039,208.414047 
	C3502.657471,213.592407 3507.988281,216.131348 3514.718994,215.010025 
	C3514.966797,214.919312 3515.425781,215.180252 3516.221191,216.301178 
	C3519.548340,218.055771 3522.079590,218.689453 3524.427979,219.451523 
	C3524.244873,219.579910 3524.331055,219.140991 3524.958252,220.377380 
	C3530.144043,224.910217 3534.646973,228.366470 3540.590088,227.142181 
	C3540.326416,227.359619 3540.621094,226.742889 3541.202148,228.019012 
	C3545.291748,230.114014 3548.800293,230.932907 3552.182617,231.837448 
	C3552.056641,231.923096 3552.054443,231.618423 3552.717773,232.705322 
	C3555.759033,234.365906 3558.137207,234.939606 3560.358887,235.611389 
	C3560.202148,235.709503 3560.203857,235.339966 3560.807617,236.474625 
	C3563.788330,238.234726 3566.165283,238.860153 3568.381836,239.574036 
	C3568.221680,239.662476 3568.215088,239.296768 3568.841309,240.436157 
	C3571.883057,242.138412 3574.298584,242.701279 3576.539551,243.380737 
	C3576.365234,243.497345 3576.386475,243.078156 3576.953125,244.255798 
	C3579.927246,246.016678 3582.334717,246.599930 3584.551758,247.312134 
	C3584.361084,247.441086 3584.439453,246.987579 3585.001953,248.175201 
	C3587.985840,249.874100 3590.407471,250.385361 3592.450684,251.227417 
	C3592.072266,251.558228 3592.690674,250.765732 3593.155762,251.997971 
	C3596.028320,253.778793 3598.435791,254.327362 3600.531738,255.310120 
	C3600.219971,255.744308 3600.692383,254.785294 3601.191895,256.091370 
	C3608.785645,262.143311 3615.555908,267.668427 3624.670410,267.197937 
	C3624.455322,267.365143 3624.601562,266.840027 3625.131836,268.136017 
	C3635.465576,275.292694 3644.581543,282.748932 3656.413330,283.109863 
	C3655.970947,283.340790 3656.756592,282.725281 3657.190918,283.966919 
	C3660.019775,285.831543 3662.413818,286.454498 3664.594238,287.282104 
	C3664.380127,287.486786 3664.545410,286.918121 3665.045410,288.122559 
	C3667.928955,289.972168 3670.312012,290.617371 3672.509277,291.380585 
	C3672.323242,291.498566 3672.395508,291.063843 3672.941406,292.243896 
	C3675.875977,294.049500 3678.264404,294.675018 3680.466309,295.443146 
	C3680.279541,295.585754 3680.377441,295.126343 3680.907715,296.302032 
	C3683.800781,298.159698 3686.163574,298.841705 3688.372314,299.617920 
	C3688.218506,299.712189 3688.200439,299.351807 3688.840332,300.521790 
	C3691.959961,302.405060 3694.439453,303.118347 3698.249512,304.159607 
	C3702.562256,305.968170 3705.606934,307.336426 3708.518311,308.945465 
	C3812.438232,366.380676 3912.175781,430.321930 4007.238770,501.484497 
	C4113.001953,580.657227 4211.908203,667.729797 4303.994141,762.395508 
	C4360.654297,820.643127 4414.302734,881.673035 4464.902344,945.322998 
	C4527.559570,1024.140747 4585.549805,1106.222168 4638.553223,1191.856079 
	C4712.325195,1311.044067 4775.638672,1435.540894 4828.272461,1565.411987 
	C4869.321777,1666.699951 4903.705078,1770.243408 4931.164062,1876.078247 
	C4946.885742,1936.675781 4960.370117,1997.770264 4971.314941,2059.367920 
	C4981.902344,2118.952148 4991.337891,2178.758789 4996.829102,2239.098145 
	C4997.118652,2242.283936 4998.103027,2245.551025 4999.460449,2248.454590 
	C5000.836914,2251.398438 5002.506836,2248.682861 5004.000000,2248.000000 
z"/>
<path fill="#CCCCCC" opacity="1.000000" stroke="none" 
	d="
M2720.000000,5004.000000 
	C2655.916504,5004.000000 2591.832764,5004.000000 2525.692871,5002.131836 
	C2523.605713,4994.274414 2523.548340,4988.284668 2523.548340,4982.294922 
	C2523.544678,4165.018555 2523.544678,3347.742676 2523.544922,2530.466553 
	C2523.544922,2525.133545 2523.124268,2519.760010 2523.634766,2514.476318 
	C2524.553955,2504.956543 2520.642822,2498.031738 2513.930664,2491.639404 
	C2501.382812,2479.690430 2489.337158,2467.214600 2477.083496,2454.957031 
	C2360.673340,2338.509766 2244.249756,2222.075684 2127.893555,2105.574463 
	C2122.368652,2100.042725 2115.828125,2095.218506 2111.890381,2086.912598 
	C2116.687012,2081.773193 2121.017822,2076.854980 2125.637695,2072.225342 
	C2166.604736,2031.173828 2207.622559,1990.173218 2248.625732,1949.157837 
	C2329.689941,1868.069824 2410.729248,1786.957520 2491.876221,1705.952637 
	C2496.915039,1700.922852 2501.094238,1694.546265 2509.702881,1691.694946 
	C2515.377686,1697.179077 2521.134521,1702.578003 2526.712158,1708.155884 
	C2726.098145,1907.550293 2925.466797,2106.961914 3124.841309,2306.367432 
	C3129.082764,2310.609863 3133.287842,2314.894043 3137.661377,2318.997070 
	C3140.032471,2321.221680 3142.556641,2323.679199 3147.717529,2320.831055 
	C3147.925293,2315.145020 3148.361572,2308.664551 3148.367432,2302.183594 
	C3148.421387,2244.187500 3148.497314,2186.191406 3148.357178,2128.195557 
	C3148.290039,2100.388184 3147.603027,2100.232422 3175.388184,2100.274170 
	C3274.714355,2100.424072 3374.041016,2100.332275 3473.367432,2100.333008 
	C3490.699463,2100.333252 3508.033447,2100.204834 3525.362549,2100.434570 
	C3529.805176,2100.493408 3534.232910,2101.689941 3538.626465,2102.357422 
	C3541.485596,2111.158936 3540.424805,2119.194580 3540.427246,2127.084473 
	C3540.486328,2317.737793 3540.429199,2508.391113 3540.523926,2699.044434 
	C3540.537109,2725.538818 3537.369385,2718.948242 3557.215576,2738.807861 
	C3754.652588,2936.380127 3952.176758,3133.864990 4149.581055,3331.469971 
	C4172.117188,3354.029541 4168.080566,3344.958496 4168.094238,3376.444092 
	C4168.236816,3709.753662 4168.227539,4043.062988 4167.480469,4377.447754 
	C4110.399414,4428.486816 4051.865479,4475.673828 3991.339355,4520.435547 
	C3865.185059,4613.731445 3731.211670,4694.061035 3589.954346,4762.192871 
	C3493.348877,4808.788086 3393.926758,4848.577637 3292.055420,4882.180176 
	C3200.971924,4912.225098 3108.429443,4936.773438 3014.484131,4956.127930 
	C2954.523438,4968.481445 2894.208496,4978.738281 2833.507812,4986.472168 
	C2797.266846,4991.089844 2760.780762,4993.781738 2724.414307,4997.432129 
	C2722.588867,4997.615723 2720.639404,4998.363281 2719.118896,4999.395020 
	C2716.302979,5001.304688 2719.408447,5002.498535 2720.000000,5004.000000 
z"/>
<path fill="#929392" opacity="1.000000" stroke="none" 
	d="
M4974.747559,2911.915527 
	C4975.260742,2922.796875 4973.850586,2933.768799 4970.878906,2945.447754 
	C4966.127441,2939.072266 4959.714844,2939.988770 4953.758301,2939.984619 
	C4915.108887,2939.958496 4876.459961,2939.940186 4837.810547,2940.051270 
	C4834.001465,2940.062256 4830.194336,2940.963867 4826.325195,2941.459961 
	C4822.998535,2949.467529 4824.181641,2956.861084 4824.169434,2964.026855 
	C4824.064941,3025.332764 4824.148926,3086.638428 4824.020508,3147.944092 
	C4824.011719,3152.203857 4825.912109,3157.095947 4820.749512,3161.850830 
	C4815.424316,3156.801514 4810.135254,3152.014404 4805.097168,3146.976562 
	C4616.145020,2958.031738 4427.215332,2769.064697 4238.284180,2580.099365 
	C4223.678223,2565.490967 4209.144043,2550.810303 4194.426758,2536.315430 
	C4191.254883,2533.191406 4187.435059,2530.724609 4184.176270,2528.161865 
	C4170.793945,2538.170654 3799.790771,2908.670898 3785.567383,2926.093750 
	C3788.940186,2932.409424 3794.799561,2936.898193 3799.865723,2941.968506 
	C3926.096436,3068.297119 4052.407959,3194.544922 4178.616211,3320.896240 
	C4199.382812,3341.686523 4195.875977,3334.238037 4195.883789,3362.386719 
	C4195.973633,3679.577637 4195.940918,3996.768555 4195.945312,4313.959473 
	C4195.945312,4320.622559 4195.531738,4327.333984 4196.199707,4333.932617 
	C4196.650879,4338.394043 4198.663086,4342.697266 4199.976562,4347.071289 
	C4191.882812,4358.229492 4181.291504,4366.844238 4169.570801,4376.007812 
	C4168.227539,4043.062988 4168.236816,3709.753662 4168.094238,3376.444092 
	C4168.080566,3344.958496 4172.117188,3354.029541 4149.581055,3331.469971 
	C3952.176758,3133.864990 3754.652588,2936.380127 3557.215576,2738.807861 
	C3537.369385,2718.948242 3540.537109,2725.538818 3540.523926,2699.044434 
	C3540.429199,2508.391113 3540.486328,2317.737793 3540.427246,2127.084473 
	C3540.424805,2119.194580 3541.485596,2111.158936 3538.626465,2102.357422 
	C3534.232910,2101.689941 3529.805176,2100.493408 3525.362549,2100.434570 
	C3508.033447,2100.204834 3490.699463,2100.333252 3473.367432,2100.333008 
	C3374.041016,2100.332275 3274.714355,2100.424072 3175.388184,2100.274170 
	C3147.603027,2100.232422 3148.290039,2100.388184 3148.357178,2128.195557 
	C3148.497314,2186.191406 3148.421387,2244.187500 3148.367432,2302.183594 
	C3148.361572,2308.664551 3147.925293,2315.145020 3147.717529,2320.831055 
	C3142.556641,2323.679199 3140.032471,2321.221680 3137.661377,2318.997070 
	C3133.287842,2314.894043 3129.082764,2310.609863 3124.841309,2306.367432 
	C2925.466797,2106.961914 2726.098145,1907.550293 2526.712158,1708.155884 
	C2521.134521,1702.578003 2515.377686,1697.179077 2509.702881,1691.694946 
	C2501.094238,1694.546265 2496.915039,1700.922852 2491.876221,1705.952637 
	C2410.729248,1786.957520 2329.689941,1868.069824 2248.625732,1949.157837 
	C2207.622559,1990.173218 2166.604736,2031.173828 2125.637695,2072.225342 
	C2121.017822,2076.854980 2116.687012,2081.773193 2111.890381,2086.912598 
	C2115.828125,2095.218506 2122.368652,2100.042725 2127.893555,2105.574463 
	C2244.249756,2222.075684 2360.673340,2338.509766 2477.083496,2454.957031 
	C2489.337158,2467.214600 2501.382812,2479.690430 2513.930664,2491.639404 
	C2520.642822,2498.031738 2524.553955,2504.956543 2523.634766,2514.476318 
	C2523.124268,2519.760010 2523.544922,2525.133545 2523.544922,2530.466553 
	C2523.544678,3347.742676 2523.544678,4165.018555 2523.548340,4982.294922 
	C2523.548340,4988.284668 2523.605713,4994.274414 2523.818359,5002.131836 
	C2515.833252,5004.000000 2507.666748,5004.000000 2497.750000,5004.000000 
	C2495.816650,4995.346191 2495.473145,4986.692383 2495.472900,4978.038574 
	C2495.448486,4164.852539 2495.466797,3351.666260 2495.387695,2538.479980 
	C2495.384766,2507.055176 2499.206787,2516.072998 2476.723633,2493.560059 
	C2282.197510,2298.776611 2087.545898,2104.118652 1893.026245,1909.328979 
	C1884.592529,1900.883667 1877.080078,1891.518433 1869.138550,1882.581665 
	C1868.827271,1871.283813 1868.248047,1859.985962 1868.244629,1848.687988 
	C1868.188477,1662.055054 1868.218628,1475.422241 1868.155273,1288.789307 
	C1868.152588,1280.965332 1869.215088,1272.952637 1866.317505,1264.412354 
	C1860.665405,1263.978760 1855.506348,1263.295044 1850.339478,1263.228271 
	C1698.661011,1261.265503 1496.003052,1262.322998 1478.219727,1265.207397 
	C1474.475952,1271.735962 1476.180176,1279.227905 1476.161621,1286.338867 
	C1476.005005,1346.327637 1476.098022,1406.316895 1476.035400,1466.306030 
	C1476.028687,1472.686646 1476.821411,1479.219360 1474.614258,1487.660156 
	C1454.941162,1471.905640 1439.847412,1454.374268 1423.383423,1438.339844 
	C1407.149658,1422.530029 1391.328369,1406.296875 1375.313110,1390.262451 
	C1358.826904,1373.756348 1342.325195,1357.265747 1325.829468,1340.769165 
	C1309.805176,1324.743774 1293.779785,1308.719360 1277.755005,1292.694458 
	C1261.258789,1276.198242 1244.754028,1259.710815 1228.268921,1243.203491 
	C1211.783936,1226.696289 1195.326904,1210.161011 1178.842285,1193.653320 
	C1162.828491,1177.617432 1146.795532,1161.600708 1130.770630,1145.575928 
	C1114.274414,1129.079712 1097.778320,1112.583496 1081.281372,1096.088013 
	C1064.784546,1079.592529 1048.278076,1063.106689 1031.791382,1046.601074 
	C1015.775940,1030.566772 999.788818,1014.504333 983.773926,998.469482 
	C967.288086,981.963074 950.783936,965.474792 934.287720,948.978638 
	C918.262878,932.953796 902.252563,916.914429 886.209106,900.908264 
	C869.761292,884.498657 853.441284,867.953979 836.000610,850.898254 
	C831.099487,855.065125 826.954956,858.126892 823.347534,861.726807 
	C785.130493,899.863403 747.008972,938.095520 708.842163,976.282349 
	C562.771729,1122.429810 416.703461,1268.579346 270.587097,1414.680908 
	C264.483429,1420.783813 257.906036,1426.413086 250.213165,1432.416260 
	C249.383621,1430.076538 249.376221,1427.326294 250.475479,1425.130005 
	C263.324249,1399.460327 276.339417,1373.873901 290.427246,1347.346191 
	C292.965881,1347.374512 295.306854,1349.412231 295.671326,1349.105103 
	C300.741394,1344.831543 305.692413,1340.388794 310.383911,1335.698730 
	C416.451599,1229.664185 522.483398,1123.593872 628.522156,1017.530579 
	C691.202820,954.835327 753.936951,892.193420 816.531250,829.412048 
	C834.717407,811.171570 834.292419,811.838257 852.295654,829.851685 
	C1044.547241,1022.211792 1236.844971,1214.525879 1429.152222,1406.830444 
	C1434.197754,1411.875854 1439.493530,1416.671021 1444.483643,1421.403687 
	C1449.809937,1417.802368 1448.083008,1413.489746 1448.092163,1409.892212 
	C1448.220337,1359.899658 1448.146484,1309.906616 1448.220337,1259.913696 
	C1448.230957,1252.727661 1447.293579,1245.374756 1450.282959,1237.194458 
	C1456.313599,1236.749512 1462.112183,1235.965454 1467.912598,1235.950806 
	C1509.906372,1235.844238 1551.900635,1235.892822 1593.894653,1235.892700 
	C1686.548218,1235.892578 1779.201904,1235.861938 1871.855469,1235.952881 
	C1879.018433,1235.959961 1886.416626,1234.751343 1894.424316,1238.148193 
	C1894.898926,1241.993896 1895.630859,1245.799683 1895.780762,1249.628296 
	C1896.015259,1255.618530 1895.863037,1261.624268 1895.863037,1267.623413 
	C1895.864258,1460.262939 1895.863770,1652.902344 1895.863892,1845.541870 
	C1895.863892,1850.207886 1896.306885,1854.924927 1895.775146,1859.529541 
	C1894.591187,1869.782104 1898.901367,1877.008545 1906.054810,1884.107666 
	C1963.304199,1940.920410 2020.221191,1998.067871 2077.322754,2055.030029 
	C2080.981689,2058.679932 2085.328857,2061.639893 2089.699707,2065.200928 
	C2093.301025,2062.881592 2096.299805,2061.439941 2098.682861,2059.309814 
	C2103.148926,2055.317139 2107.273193,2050.939941 2111.514648,2046.697632 
	C2237.820068,1920.365845 2364.120117,1794.028564 2490.431885,1667.703491 
	C2495.579590,1662.555176 2500.833740,1657.513550 2506.755615,1651.720703 
	C2510.523926,1654.340454 2513.895752,1656.226929 2516.704834,1658.741699 
	C2521.167725,1662.737549 2525.259277,1667.148438 2529.500977,1671.390991 
	C2720.373047,1862.302734 2911.231689,2053.227539 3102.177734,2244.065186 
	C3107.602295,2249.486816 3112.025146,2256.505859 3120.038330,2258.763428 
	C3125.670898,2254.156494 3123.630615,2248.408203 3123.649170,2243.442627 
	C3123.825439,2196.116699 3123.754639,2148.789795 3123.755127,2101.463135 
	C3123.755371,2094.177002 3123.755127,2086.891113 3123.755127,2078.845215 
	C3128.448730,2077.627441 3132.075195,2076.288086 3135.810059,2075.826660 
	C3139.750977,2075.339111 3143.795654,2075.676025 3147.794922,2075.676025 
	C3279.776367,2075.673584 3411.757568,2075.660156 3543.739014,2075.711426 
	C3550.946045,2075.714355 3558.302979,2074.786133 3566.385986,2077.651123 
	C3566.996094,2081.450439 3567.918213,2085.213379 3568.134277,2089.016113 
	C3568.436523,2094.331299 3568.213135,2099.677002 3568.213135,2105.009521 
	C3568.213135,2298.982178 3568.168213,2492.954834 3568.264404,2686.927490 
	C3568.277588,2713.590088 3565.087402,2707.052490 3584.752197,2726.774170 
	C3638.877197,2781.056641 3693.087158,2835.254639 3747.367432,2889.381836 
	C3752.435303,2894.434814 3756.711426,2900.643311 3764.580566,2903.833740 
	C3781.809814,2889.961182 3796.182617,2873.368164 3811.815674,2858.134766 
	C3827.568359,2842.784424 3842.956787,2827.060547 3858.508545,2811.503906 
	C3873.589111,2796.418701 3888.673584,2781.337646 3903.756348,2766.254883 
	C3919.310059,2750.700195 3934.864014,2735.145752 3950.417969,2719.591309 
	C3965.972168,2704.037354 3981.529541,2688.486328 3997.079834,2672.928467 
	C4012.629883,2657.370117 4028.169922,2641.801758 4043.719727,2626.243164 
	C4058.798584,2611.156494 4073.884033,2596.076416 4088.966797,2580.993652 
	C4104.520996,2565.439453 4119.961914,2549.769531 4135.661133,2534.364014 
	C4151.280273,2519.037598 4165.977051,2502.731445 4182.639648,2488.477539 
	C4190.359375,2490.505615 4194.104004,2496.383301 4198.685059,2500.955322 
	C4261.434570,2563.581543 4324.097168,2626.294922 4386.774902,2688.992676 
	C4517.314941,2819.574219 4647.846680,2950.163818 4778.410156,3080.721436 
	C4782.988770,3085.299316 4787.870605,3089.574463 4792.378418,3093.773682 
	C4797.925293,3090.453125 4796.204102,3086.076660 4796.213379,3082.487305 
	C4796.342285,3033.827881 4796.285156,2985.167969 4796.330078,2936.508301 
	C4796.334961,2931.186035 4796.315918,2925.816406 4796.995605,2920.557617 
	C4797.550781,2916.260254 4800.579590,2913.254150 4804.955566,2912.779541 
	C4810.235352,2912.207031 4815.591309,2912.202393 4820.915039,2912.192627 
	C4871.551270,2912.101318 4922.187988,2912.061035 4974.747559,2911.915527 
z"/>
<path fill="#78907B" opacity="1.000000" stroke="none" 
	d="
M2710.125488,3.999998 
	C2711.927734,5.690156 2711.339600,8.651434 2711.866455,8.865353 
	C2715.444824,10.317813 2719.215576,11.919774 2723.002197,12.142267 
	C2785.946533,15.840659 2848.229248,24.938519 2910.445557,34.673851 
	C2995.078125,47.916790 3078.568848,66.471375 3161.368164,88.272614 
	C3167.132080,89.790352 3172.796875,91.685829 3179.470703,94.498505 
	C3175.195557,95.075890 3169.810059,95.169907 3164.743164,93.945374 
	C3133.128662,86.304756 3101.734131,77.694229 3069.980469,70.705551 
	C3031.802979,62.303036 2993.346436,55.164757 2954.997559,47.545082 
	C2937.450195,44.058537 2919.906006,40.536995 2902.294922,37.397438 
	C2890.556396,35.304752 2878.736816,33.564602 2866.893311,32.183113 
	C2840.562744,29.111834 2814.177979,26.507397 2787.847168,23.437408 
	C2769.435547,21.290712 2751.138428,17.541594 2732.680664,16.555050 
	C2704.171875,15.031309 2675.873291,10.216969 2647.164551,11.465096 
	C2638.676025,11.834145 2630.104248,9.467358 2621.535889,9.019501 
	C2608.926514,8.360434 2596.286133,8.298240 2581.802246,6.968380 
	C2579.945801,5.954961 2580.000000,4.000000 2580.000000,4.000000 
	C2622.750244,4.000000 2665.500488,4.000000 2710.125488,3.999998 
z"/>
<path fill="#778E79" opacity="1.000000" stroke="none" 
	d="
M1949.190796,67.624893 
	C1949.771240,66.172966 1951.931152,64.434219 1954.357910,63.893467 
	C2010.231323,51.443542 2066.420166,40.628052 2122.994873,31.871426 
	C2173.620850,24.035545 2224.443115,17.752680 2275.453125,13.023459 
	C2281.395752,12.472511 2287.406250,12.664985 2293.352051,12.138387 
	C2297.863770,11.738799 2302.796143,11.922622 2304.848145,5.625391 
	C2348.083496,4.000000 2392.167236,4.000000 2437.557129,4.947427 
	C2438.635010,6.594871 2438.406006,7.294887 2438.177246,7.994903 
	C2419.679932,8.428108 2401.083252,6.603691 2382.781738,11.314561 
	C2378.409912,12.439878 2373.512939,11.860559 2368.884033,11.597281 
	C2340.278564,9.970252 2311.974365,14.340656 2283.644775,16.681273 
	C2257.337646,18.854788 2231.071289,22.013279 2204.760498,24.559212 
	C2181.795166,26.781412 2159.062988,31.411621 2136.227783,34.979073 
	C2108.158203,39.364288 2079.988037,43.199486 2052.047119,48.291546 
	C2024.084351,53.387569 1996.364746,59.810371 1968.504639,65.484505 
	C1962.711304,66.664421 1956.768433,67.111374 1949.190796,67.624893 
z"/>
<path fill="#8C8D8C" opacity="1.000000" stroke="none" 
	d="
M4.000000,2345.874512 
	C5.121081,2346.676025 7.022902,2347.475342 11.086187,2345.197266 
	C12.965129,2345.864014 13.963846,2347.726318 13.904542,2349.554688 
	C13.092712,2374.583740 12.120937,2399.607422 11.226892,2424.633789 
	C11.084350,2428.623535 11.159828,2432.632568 5.478999,2435.451172 
	C4.000000,2406.583008 4.000000,2377.166016 4.000000,2345.874512 
z"/>
<path fill="#AEEBB4" opacity="1.000000" stroke="none" 
	d="
M2440.221680,8.107499 
	C2438.406006,7.294887 2438.635010,6.594871 2439.431885,4.947427 
	C2485.416992,4.000000 2530.833740,4.000000 2578.125488,4.000000 
	C2580.000000,4.000000 2579.945801,5.954961 2579.958496,6.931829 
	C2534.069580,8.012497 2488.167969,8.116296 2440.221680,8.107499 
z"/>
<path fill="#8B8D8B" opacity="1.000000" stroke="none" 
	d="
M4.000000,2577.858643 
	C8.527377,2576.538574 11.000499,2579.001465 11.072358,2583.640869 
	C11.304297,2598.616211 11.516946,2613.591309 10.253389,2630.345215 
	C7.179835,2632.082520 5.589919,2632.041260 4.000001,2632.000000 
	C4.000000,2614.572510 4.000000,2597.144775 4.000000,2577.858643 
z"/>
<path fill="#8DBF92" opacity="1.000000" stroke="none" 
	d="
M5004.000000,2382.132568 
	C4999.760254,2380.679443 5000.062500,2375.911865 5000.049805,2371.303467 
	C5000.004395,2355.422363 5000.027832,2339.541504 5001.050293,2321.938721 
	C5002.075684,2320.217041 5004.000000,2320.000000 5004.000000,2320.000000 
	C5004.000000,2340.088379 5004.000000,2360.176758 5004.000000,2382.132568 
z"/>
<path fill="#8CBD91" opacity="1.000000" stroke="none" 
	d="
M5000.115723,2691.718262 
	C5000.075684,2675.822998 4999.911621,2659.926514 5000.074707,2644.033203 
	C5000.121582,2639.476074 5001.114746,2634.928223 5002.836914,2629.187988 
	C5004.000000,2648.088379 5004.000000,2668.176758 5003.041992,2689.877441 
	C5002.084473,2691.489502 5000.115723,2691.718262 5000.115723,2691.718262 
z"/>
<path fill="#8B8D8B" opacity="1.000000" stroke="none" 
	d="
M12.791026,2662.966309 
	C10.182015,2663.178955 8.188875,2662.368408 5.097867,2662.778809 
	C4.000000,2659.733154 4.000000,2655.466553 5.284077,2649.911621 
	C8.316665,2648.425537 10.065176,2648.227295 11.813705,2648.029297 
	C12.344781,2652.667236 12.875838,2657.305176 12.791026,2662.966309 
z"/>
<path fill="#656565" opacity="1.000000" stroke="none" 
	d="
M11.790092,2646.448975 
	C10.065176,2648.227295 8.316665,2648.425537 5.284077,2648.312012 
	C4.000000,2643.733154 4.000000,2639.466553 4.000001,2633.599854 
	C5.589919,2632.041260 7.179835,2632.082520 9.963045,2632.195312 
	C11.359724,2636.467529 11.563111,2640.668213 11.790092,2646.448975 
z"/>
<path fill="#3B483B" opacity="1.000000" stroke="none" 
	d="
M5004.000000,2318.286133 
	C5004.000000,2320.000000 5002.075684,2320.217041 5001.120605,2320.069092 
	C5000.411133,2312.270752 5000.657227,2304.620117 5002.451660,2296.484863 
	C5004.000000,2302.857422 5004.000000,2309.714844 5004.000000,2318.286133 
z"/>
<path fill="#384438" opacity="1.000000" stroke="none" 
	d="
M5000.120605,2693.415527 
	C5000.115723,2691.718262 5002.084473,2691.489502 5003.041992,2691.744629 
	C5004.000000,2698.857422 5004.000000,2705.714844 5004.000000,2714.286133 
	C5000.774902,2715.620117 5000.045898,2713.435059 5000.068359,2710.645264 
	C5000.109863,2705.468018 5000.108398,2700.290283 5000.120605,2693.415527 
z"/>
<path fill="#2C2C2C" opacity="1.000000" stroke="none" 
	d="
M2305.333252,5004.000000 
	C2301.985107,5002.343750 2300.117920,4999.976562 2303.679199,4998.821777 
	C2307.145996,4997.697754 2311.183838,4997.995117 2312.931641,5002.775391 
	C2310.222168,5004.000000 2308.444336,5004.000000 2305.333252,5004.000000 
z"/>
<path fill="#8C8D8C" opacity="1.000000" stroke="none" 
	d="
M24.287966,2219.268555 
	C23.324436,2216.544189 23.192392,2213.066406 23.811123,2208.789307 
	C24.747747,2211.498291 24.933599,2215.007080 24.287966,2219.268555 
z"/>
<path fill="#8C8D8C" opacity="1.000000" stroke="none" 
	d="
M19.953627,2259.363281 
	C18.940298,2256.542480 18.833157,2253.053223 19.508772,2248.779785 
	C20.480957,2251.562256 20.670385,2255.128418 19.953627,2259.363281 
z"/>
<path fill="#8C8D8C" opacity="1.000000" stroke="none" 
	d="
M27.999878,2188.218018 
	C27.156607,2184.888184 27.235075,2180.626221 28.201242,2175.402832 
	C29.033165,2178.722900 28.977388,2183.004395 27.999878,2188.218018 
z"/>
<path fill="#8B8D8B" opacity="1.000000" stroke="none" 
	d="
M21.064135,2763.103760 
	C19.593922,2760.592041 18.794167,2757.194092 18.598164,2752.895996 
	C20.046143,2755.403320 20.890368,2758.810303 21.064135,2763.103760 
z"/>
<path fill="#8B8D8B" opacity="1.000000" stroke="none" 
	d="
M24.852827,2799.088867 
	C23.376522,2796.574707 22.546703,2793.154785 22.379730,2788.864746 
	C23.861488,2791.390381 24.680401,2794.786865 24.852827,2799.088867 
z"/>
<path fill="#8B8D8B" opacity="1.000000" stroke="none" 
	d="
M33.238453,2863.112061 
	C31.726578,2860.603760 30.902975,2857.219971 30.641165,2852.916504 
	C32.110882,2855.409912 33.018803,2858.823486 33.238453,2863.112061 
z"/>
<path fill="#8B8D8B" opacity="1.000000" stroke="none" 
	d="
M142.281570,3316.246094 
	C140.386246,3314.628174 138.961349,3311.884033 137.954224,3308.002930 
	C139.832001,3309.617188 141.291992,3312.368408 142.281570,3316.246094 
z"/>
<path fill="#8B8D8B" opacity="1.000000" stroke="none" 
	d="
M97.453384,3171.328857 
	C95.764496,3169.738525 94.702164,3167.496338 94.081726,3164.049316 
	C95.709053,3165.455322 96.894501,3168.066406 97.453384,3171.328857 
z"/>
<path fill="#8C8D8C" opacity="1.000000" stroke="none" 
	d="
M83.820877,1892.402588 
	C83.104752,1890.088623 83.344788,1887.033203 84.527817,1883.231934 
	C85.239563,1885.544312 85.008308,1888.602661 83.820877,1892.402588 
z"/>
<path fill="#8C8D8C" opacity="1.000000" stroke="none" 
	d="
M80.082161,1907.528809 
	C79.253189,1905.685425 79.269295,1903.340332 80.085663,1900.492432 
	C80.899696,1902.335449 80.913467,1904.681274 80.082161,1907.528809 
z"/>
<path fill="#8C8D8C" opacity="1.000000" stroke="none" 
	d="
M60.127922,1995.080444 
	C59.250530,1993.203857 59.321758,1990.375732 60.144951,1987.003174 
	C60.956791,1989.015381 61.016663,1991.572144 60.127922,1995.080444 
z"/>
<path fill="#8B8D8B" opacity="1.000000" stroke="none" 
	d="
M69.438858,3059.261963 
	C67.875938,3057.803711 66.935982,3055.627930 66.594681,3052.722168 
	C68.149490,3054.176514 69.105652,3056.360352 69.438858,3059.261963 
z"/>
<path fill="#8C8D8C" opacity="1.000000" stroke="none" 
	d="
M55.891434,2016.359863 
	C55.053822,2014.129517 55.126648,2011.118652 56.028236,2007.282227 
	C56.838623,2009.497559 56.820248,2012.538330 55.891434,2016.359863 
z"/>
<path fill="#8C8D8C" opacity="1.000000" stroke="none" 
	d="
M52.057587,2036.614746 
	C51.224670,2034.646118 51.144360,2032.187378 51.996773,2028.858398 
	C52.889725,2030.700317 52.849957,2033.412476 52.057587,2036.614746 
z"/>
<path fill="#8C8D8C" opacity="1.000000" stroke="none" 
	d="
M47.453186,2060.771973 
	C46.550831,2058.719238 46.512669,2056.313232 47.301132,2052.952881 
	C48.190968,2054.805420 48.254177,2057.612061 47.453186,2060.771973 
z"/>
<path fill="#8C8D8C" opacity="1.000000" stroke="none" 
	d="
M44.118507,2079.517334 
	C43.197655,2077.714600 43.093838,2075.401367 43.754227,2072.539795 
	C44.657471,2074.329834 44.796509,2076.668457 44.118507,2079.517334 
z"/>
<path fill="#8B8D8B" opacity="1.000000" stroke="none" 
	d="
M57.420673,3003.293457 
	C55.960804,3001.814941 55.150860,2999.647217 54.893742,2996.737793 
	C56.321243,2998.198975 57.195923,3000.401611 57.420673,3003.293457 
z"/>
<path fill="#8C8D8C" opacity="1.000000" stroke="none" 
	d="
M32.346157,2155.448242 
	C31.382444,2153.731689 31.184175,2151.446045 31.703606,2148.577148 
	C32.651402,2150.288818 32.881500,2152.583984 32.346157,2155.448242 
z"/>
<path fill="#8B8D8B" opacity="1.000000" stroke="none" 
	d="
M49.100525,2960.330078 
	C47.634956,2958.561035 46.698101,2955.729980 46.282467,2951.861816 
	C47.745541,2953.639160 48.687389,2956.453369 49.100525,2960.330078 
z"/>
<path fill="#8B8D8B" opacity="1.000000" stroke="none" 
	d="
M45.366409,2939.294434 
	C43.911369,2937.804688 43.099480,2935.624268 42.867668,2932.720215 
	C44.301682,2934.198975 45.155621,2936.401611 45.366409,2939.294434 
z"/>
<path fill="#8B8D8B" opacity="1.000000" stroke="none" 
	d="
M36.913307,2887.275391 
	C35.424427,2885.763428 34.570065,2883.534180 34.384468,2880.647461 
	C35.884766,2882.179443 36.716297,2884.368652 36.913307,2887.275391 
z"/>
<path fill="#8C8D8C" opacity="1.000000" stroke="none" 
	d="
M15.944139,2303.568359 
	C14.942685,2301.746826 14.777571,2299.460449 15.369331,2296.586426 
	C16.344297,2298.366943 16.562387,2300.734863 15.944139,2303.568359 
z"/>
<path fill="#8B8D8B" opacity="1.000000" stroke="none" 
	d="
M28.807121,2831.387939 
	C27.515329,2829.701172 26.857752,2827.407471 26.723412,2823.978516 
	C27.978209,2825.489014 28.709770,2828.135010 28.807121,2831.387939 
z"/>
<path fill="#8B8D8B" opacity="1.000000" stroke="none" 
	d="
M16.830540,2715.236816 
	C15.503418,2713.778320 14.731137,2711.563965 14.605759,2708.671631 
	C15.963568,2710.156006 16.674475,2712.318359 16.830540,2715.236816 
z"/>
<path fill="#8B8D8B" opacity="1.000000" stroke="none" 
	d="
M163.717545,3375.458496 
	C162.428879,3375.506348 161.509155,3374.487549 160.875488,3372.420654 
	C162.136536,3372.378906 163.111526,3373.385498 163.717545,3375.458496 
z"/>
<path fill="#8B8D8B" opacity="1.000000" stroke="none" 
	d="
M128.582092,3275.025879 
	C126.789497,3275.419189 126.107124,3274.494629 126.546814,3272.263916 
	C128.412720,3271.824951 129.087204,3272.741943 128.582092,3275.025879 
z"/>
<path fill="#8B8D8B" opacity="1.000000" stroke="none" 
	d="
M121.176422,3251.867432 
	C120.078438,3251.770020 119.552788,3251.221191 119.263092,3249.557129 
	C120.248955,3249.433350 120.998848,3250.424805 121.176422,3251.867432 
z"/>
<path fill="#778E79" opacity="1.000000" stroke="none" 
	d="
M1869.109863,87.638260 
	C1872.795410,85.284561 1877.996582,82.573265 1883.529663,81.200539 
	C1903.749023,76.184113 1924.079102,71.613960 1946.055420,67.014473 
	C1946.345459,68.486237 1945.149170,70.621902 1943.519409,71.031212 
	C1920.622437,76.781723 1897.669556,82.310867 1874.715454,87.832031 
	C1873.469849,88.131638 1872.093262,87.886513 1869.109863,87.638260 
z"/>
<path fill="#778E79" opacity="1.000000" stroke="none" 
	d="
M1759.381836,119.268982 
	C1768.141235,111.649696 1780.566895,110.048576 1794.133057,107.128036 
	C1785.790527,115.791115 1773.279419,117.226212 1759.381836,119.268982 
z"/>
<path fill="#78907B" opacity="1.000000" stroke="none" 
	d="
M3625.131836,268.136047 
	C3634.871582,271.415375 3645.141602,275.990692 3656.133789,281.722473 
	C3644.581543,282.748932 3635.465576,275.292694 3625.131836,268.136047 
z"/>
<path fill="#78907B" opacity="1.000000" stroke="none" 
	d="
M3388.920410,164.566284 
	C3398.277588,166.764435 3408.378418,170.189667 3419.402344,174.687805 
	C3409.145996,175.387619 3398.963623,171.947861 3388.920410,164.566284 
z"/>
<path fill="#78907B" opacity="1.000000" stroke="none" 
	d="
M3221.139648,108.258682 
	C3229.131836,109.067139 3237.873779,111.158569 3247.541992,114.376846 
	C3238.793945,117.147568 3230.273926,113.645859 3221.139648,108.258682 
z"/>
<path fill="#78907B" opacity="1.000000" stroke="none" 
	d="
M3193.124023,100.270508 
	C3201.808594,98.074600 3210.112061,102.294235 3219.725586,106.071701 
	C3210.896484,109.387878 3202.370850,105.600876 3193.124023,100.270508 
z"/>
<path fill="#778E79" opacity="1.000000" stroke="none" 
	d="
M1797.007324,107.612183 
	C1803.010620,102.103958 1811.635498,99.927620 1822.208252,99.047768 
	C1816.852661,106.366707 1807.899902,107.626175 1797.007324,107.612183 
z"/>
<path fill="#778E79" opacity="1.000000" stroke="none" 
	d="
M1825.037842,99.633911 
	C1830.903809,93.808266 1839.849731,92.626411 1850.147827,90.982941 
	C1844.900635,98.499611 1835.904297,99.597618 1825.037842,99.633911 
z"/>
<path fill="#78907B" opacity="1.000000" stroke="none" 
	d="
M3601.191895,256.091431 
	C3608.287842,258.081177 3615.883057,261.376984 3624.182129,265.851776 
	C3615.555908,267.668427 3608.785645,262.143311 3601.191895,256.091431 
z"/>
<path fill="#78907B" opacity="1.000000" stroke="none" 
	d="
M3356.931152,152.541809 
	C3362.475586,153.223465 3368.749756,155.140381 3375.838379,158.190063 
	C3369.351318,160.799957 3363.276123,158.076248 3356.931152,152.541809 
z"/>
<path fill="#778E79" opacity="1.000000" stroke="none" 
	d="
M1652.807251,155.507645 
	C1655.955811,149.783142 1662.518188,148.658600 1670.485229,147.501602 
	C1667.559448,153.564819 1661.215210,155.292038 1652.807251,155.507645 
z"/>
<path fill="#78907B" opacity="1.000000" stroke="none" 
	d="
M3297.122559,132.247681 
	C3303.870605,132.973694 3311.354736,134.958328 3319.736816,138.056351 
	C3312.072266,141.185211 3305.156738,136.577805 3297.122559,132.247681 
z"/>
<path fill="#778E79" opacity="1.000000" stroke="none" 
	d="
M1272.721680,331.415039 
	C1277.222290,327.408020 1283.140015,323.523560 1290.425293,319.545227 
	C1288.564087,327.359375 1281.226685,329.266174 1272.721680,331.415039 
z"/>
<path fill="#778E79" opacity="1.000000" stroke="none" 
	d="
M1493.019775,219.749832 
	C1497.213745,216.663727 1502.877075,213.729538 1509.964600,210.810455 
	C1507.820312,217.695312 1501.323853,219.113373 1493.019775,219.749832 
z"/>
<path fill="#778E79" opacity="1.000000" stroke="none" 
	d="
M1308.593018,311.226562 
	C1313.176270,307.298157 1319.175903,303.549591 1326.542358,299.718933 
	C1324.420898,307.328979 1317.186523,309.324158 1308.593018,311.226562 
z"/>
<path fill="#78907B" opacity="1.000000" stroke="none" 
	d="
M3497.040039,208.414062 
	C3501.788086,208.981827 3507.256836,210.842896 3513.598633,213.902344 
	C3507.988281,216.131348 3502.657471,213.592407 3497.040039,208.414062 
z"/>
<path fill="#778E79" opacity="1.000000" stroke="none" 
	d="
M1329.117554,299.872131 
	C1332.148071,296.975433 1336.601318,294.186340 1342.415771,291.384094 
	C1341.556274,297.610168 1336.675415,299.759155 1329.117554,299.872131 
z"/>
<path fill="#78907B" opacity="1.000000" stroke="none" 
	d="
M3468.940430,196.485382 
	C3474.425781,197.273422 3480.614990,199.303894 3487.615479,202.469788 
	C3481.209717,204.702164 3475.187256,201.981247 3468.940430,196.485382 
z"/>
<path fill="#778E79" opacity="1.000000" stroke="none" 
	d="
M1520.988770,207.702942 
	C1525.210571,204.645599 1530.902222,201.762405 1538.009766,198.866058 
	C1535.774292,205.629349 1529.333130,207.160706 1520.988770,207.702942 
z"/>
<path fill="#778E79" opacity="1.000000" stroke="none" 
	d="
M1549.083496,195.810150 
	C1553.342651,192.791122 1559.064575,189.901932 1566.215576,187.057358 
	C1563.808472,193.652527 1557.363892,195.157043 1549.083496,195.810150 
z"/>
<path fill="#778E79" opacity="1.000000" stroke="none" 
	d="
M1568.900635,187.519470 
	C1573.418335,184.533356 1579.429932,181.777847 1586.945312,178.933853 
	C1584.089111,185.175827 1577.661499,187.313904 1568.900635,187.519470 
z"/>
<path fill="#778E79" opacity="1.000000" stroke="none" 
	d="
M1451.026855,239.207764 
	C1453.566284,236.555252 1457.620728,234.074158 1463.157959,231.614288 
	C1461.932861,236.287216 1458.175659,239.299179 1451.026855,239.207764 
z"/>
<path fill="#78907B" opacity="1.000000" stroke="none" 
	d="
M3524.958252,220.377396 
	C3529.349365,220.981491 3534.367432,222.821991 3540.119629,225.793610 
	C3534.646973,228.366470 3530.144043,224.910217 3524.958252,220.377396 
z"/>
<path fill="#778E79" opacity="1.000000" stroke="none" 
	d="
M1252.465576,343.079041 
	C1254.493286,340.402069 1257.869751,337.974701 1262.533936,335.507843 
	C1262.177002,340.241455 1258.857056,342.881653 1252.465576,343.079041 
z"/>
<path fill="#778E79" opacity="1.000000" stroke="none" 
	d="
M1852.993896,91.599854 
	C1855.941772,89.834579 1860.394043,88.345604 1866.313354,87.021675 
	C1864.729370,92.648117 1859.461182,91.829536 1852.993896,91.599854 
z"/>
<path fill="#78907B" opacity="1.000000" stroke="none" 
	d="
M3449.152832,188.099365 
	C3451.974854,187.716599 3455.394287,188.605560 3459.581055,190.597076 
	C3456.815918,190.923447 3453.282959,190.147263 3449.152832,188.099365 
z"/>
<path fill="#78907B" opacity="1.000000" stroke="none" 
	d="
M3429.087402,180.195099 
	C3431.850342,179.838135 3435.262939,180.724915 3439.507812,182.655182 
	C3436.805908,182.945404 3433.271240,182.192123 3429.087402,180.195099 
z"/>
<path fill="#78907B" opacity="1.000000" stroke="none" 
	d="
M3541.202148,228.018982 
	C3543.964111,227.720825 3547.307129,228.698807 3551.479492,230.714294 
	C3548.800293,230.932907 3545.291748,230.114014 3541.202148,228.018982 
z"/>
<path fill="#778E79" opacity="1.000000" stroke="none" 
	d="
M1608.934326,171.686325 
	C1610.609375,169.943329 1613.703125,168.406845 1618.147217,166.876770 
	C1617.959717,171.309937 1614.305664,171.873871 1608.934326,171.686325 
z"/>
<path fill="#78907B" opacity="1.000000" stroke="none" 
	d="
M3377.007080,160.336639 
	C3379.797119,159.863907 3383.302734,160.608170 3387.642090,162.426407 
	C3384.891602,162.851456 3381.306885,162.202545 3377.007080,160.336639 
z"/>
<path fill="#778E79" opacity="1.000000" stroke="none" 
	d="
M1629.048584,163.848785 
	C1630.798950,162.160477 1633.950928,160.649414 1638.472656,159.244019 
	C1637.919800,163.334839 1634.344727,164.001114 1629.048584,163.848785 
z"/>
<path fill="#778E79" opacity="1.000000" stroke="none" 
	d="
M1640.931641,159.709122 
	C1642.657715,157.992249 1645.799561,156.462646 1650.310913,155.014160 
	C1649.918335,159.317764 1646.264771,159.863297 1640.931641,159.709122 
z"/>
<path fill="#78907B" opacity="1.000000" stroke="none" 
	d="
M3344.919922,148.528793 
	C3347.689697,148.018616 3351.223389,148.693542 3355.621094,150.422531 
	C3352.884766,150.889038 3349.284424,150.301468 3344.919922,148.528793 
z"/>
<path fill="#78907B" opacity="1.000000" stroke="none" 
	d="
M3332.975586,144.406464 
	C3335.743408,143.947815 3339.250000,144.691208 3343.626953,146.480240 
	C3340.903076,146.886765 3337.308594,146.247650 3332.975586,144.406464 
z"/>
<path fill="#778E79" opacity="1.000000" stroke="none" 
	d="
M1673.047119,147.868210 
	C1674.811279,146.243729 1677.978516,144.766769 1682.517578,143.368958 
	C1681.912109,147.386581 1678.333740,148.016373 1673.047119,147.868210 
z"/>
<path fill="#78907B" opacity="1.000000" stroke="none" 
	d="
M3321.091797,140.203430 
	C3323.913330,139.719162 3327.409912,140.486160 3331.741699,142.326630 
	C3328.973633,142.751648 3325.369873,142.103180 3321.091797,140.203430 
z"/>
<path fill="#778E79" opacity="1.000000" stroke="none" 
	d="
M1684.978027,143.777130 
	C1686.710449,142.064484 1689.855957,140.522644 1694.373535,139.086716 
	C1693.915039,143.310684 1690.327393,143.972046 1684.978027,143.777130 
z"/>
<path fill="#778E79" opacity="1.000000" stroke="none" 
	d="
M1696.868164,139.609619 
	C1698.595825,137.845154 1701.740845,136.321716 1706.252686,134.912201 
	C1705.890869,139.309036 1702.255493,139.903519 1696.868164,139.609619 
z"/>
<path fill="#78907B" opacity="1.000000" stroke="none" 
	d="
M3285.089844,128.231415 
	C3287.926758,127.664635 3291.469482,128.339447 3295.850586,130.090195 
	C3293.057617,130.601761 3289.426758,130.037384 3285.089844,128.231415 
z"/>
<path fill="#78907B" opacity="1.000000" stroke="none" 
	d="
M3180.915039,96.578537 
	C3183.656006,96.021431 3187.192383,96.639137 3191.677246,98.233505 
	C3188.987305,98.724571 3185.348877,98.238960 3180.915039,96.578537 
z"/>
<path fill="#778E79" opacity="1.000000" stroke="none" 
	d="
M1745.029297,123.775818 
	C1746.909546,122.088676 1750.244263,120.598824 1755.019531,119.137733 
	C1754.230347,123.043083 1750.602417,124.017540 1745.029297,123.775818 
z"/>
<path fill="#78907B" opacity="1.000000" stroke="none" 
	d="
M3260.405762,120.181839 
	C3263.211670,119.776115 3266.902100,120.564819 3271.556885,122.395164 
	C3268.777588,122.749962 3265.033936,122.063118 3260.405762,120.181839 
z"/>
<path fill="#778E79" opacity="1.000000" stroke="none" 
	d="
M1732.838623,127.609146 
	C1734.663940,125.955017 1737.900879,124.541786 1742.512695,123.275757 
	C1741.807251,127.363106 1738.193604,127.965523 1732.838623,127.609146 
z"/>
<path fill="#78907B" opacity="1.000000" stroke="none" 
	d="
M3272.982666,124.429405 
	C3275.771729,123.856598 3279.346680,124.469910 3283.804199,126.137917 
	C3281.047607,126.666908 3277.407959,126.141212 3272.982666,124.429405 
z"/>
<path fill="#778E79" opacity="1.000000" stroke="none" 
	d="
M1720.838379,131.594452 
	C1722.613770,129.901047 1725.806274,128.449509 1730.372803,127.091057 
	C1729.847046,131.313690 1726.228516,131.936432 1720.838379,131.594452 
z"/>
<path fill="#778E79" opacity="1.000000" stroke="none" 
	d="
M1708.820679,135.490860 
	C1710.604248,133.818848 1713.798828,132.424667 1718.366577,131.104675 
	C1717.823853,135.305389 1714.216919,135.928818 1708.820679,135.490860 
z"/>
<path fill="#78907B" opacity="1.000000" stroke="none" 
	d="
M3440.769531,184.646164 
	C3442.501465,184.000107 3444.927246,184.447189 3448.054688,185.936920 
	C3446.325439,186.566147 3443.894287,186.152725 3440.769531,184.646164 
z"/>
<path fill="#778E79" opacity="1.000000" stroke="none" 
	d="
M1620.511230,167.287903 
	C1621.281128,165.809006 1623.335938,164.556671 1626.650879,163.418442 
	C1625.872559,164.859863 1623.834351,166.187149 1620.511230,167.287903 
z"/>
<path fill="#78907B" opacity="1.000000" stroke="none" 
	d="
M3249.018066,116.532944 
	C3250.906006,115.842560 3253.651123,116.356766 3257.397949,117.893967 
	C3255.558350,118.523819 3252.716797,118.130669 3249.018066,116.532944 
z"/>
<path fill="#778E79" opacity="1.000000" stroke="none" 
	d="
M1599.459473,175.482208 
	C1600.346924,173.958969 1602.684326,172.563034 1606.419189,171.242065 
	C1605.514282,172.747864 1603.211670,174.178680 1599.459473,175.482208 
z"/>
<path fill="#78907B" opacity="1.000000" stroke="none" 
	d="
M3420.745361,176.700226 
	C3422.462891,176.101562 3424.878662,176.588638 3428.019287,178.104324 
	C3426.310547,178.683929 3423.877197,178.234955 3420.745361,176.700226 
z"/>
<path fill="#778E79" opacity="1.000000" stroke="none" 
	d="
M1344.790039,291.644196 
	C1345.425903,290.156891 1347.344482,288.763672 1350.501465,287.320770 
	C1349.850830,288.760132 1347.961914,290.249207 1344.790039,291.644196 
z"/>
<path fill="#78907B" opacity="1.000000" stroke="none" 
	d="
M3460.746582,192.657990 
	C3462.455078,192.157593 3464.823730,192.753708 3467.885742,194.385956 
	C3466.188721,194.866211 3463.797607,194.310349 3460.746582,192.657990 
z"/>
<path fill="#778E79" opacity="1.000000" stroke="none" 
	d="
M1360.611694,283.376465 
	C1361.237793,281.810120 1363.160156,280.420441 1366.330322,279.038788 
	C1365.687988,280.548920 1363.797852,282.051025 1360.611694,283.376465 
z"/>
<path fill="#778E79" opacity="1.000000" stroke="none" 
	d="
M1408.629883,259.441711 
	C1409.249878,257.883331 1411.166626,256.482544 1414.331421,255.074951 
	C1413.695190,256.578552 1411.810913,258.088928 1408.629883,259.441711 
z"/>
<path fill="#778E79" opacity="1.000000" stroke="none" 
	d="
M1400.607178,263.422852 
	C1401.245850,261.869537 1403.182861,260.478180 1406.372314,259.095398 
	C1405.718384,260.597534 1403.812134,262.091156 1400.607178,263.422852 
z"/>
<path fill="#778E79" opacity="1.000000" stroke="none" 
	d="
M1392.634521,267.475891 
	C1393.250977,265.926331 1395.169312,264.491455 1398.344482,263.061768 
	C1397.712891,264.574799 1395.824585,266.082672 1392.634521,267.475891 
z"/>
<path fill="#778E79" opacity="1.000000" stroke="none" 
	d="
M1384.616211,271.425385 
	C1385.268921,269.908386 1387.217163,268.562500 1390.414551,267.185486 
	C1389.746338,268.635040 1387.828979,270.115753 1384.616211,271.425385 
z"/>
<path fill="#778E79" opacity="1.000000" stroke="none" 
	d="
M1376.615234,275.418701 
	C1377.244751,273.853485 1379.172729,272.453918 1382.351562,271.064392 
	C1381.706299,272.577728 1379.810059,274.081024 1376.615234,275.418701 
z"/>
<path fill="#778E79" opacity="1.000000" stroke="none" 
	d="
M1244.647827,347.459778 
	C1245.148071,345.847443 1246.951416,344.346832 1249.983643,342.783142 
	C1249.458618,344.337189 1247.704712,345.954346 1244.647827,347.459778 
z"/>
<path fill="#778E79" opacity="1.000000" stroke="none" 
	d="
M1368.611450,279.396851 
	C1369.246948,277.848877 1371.178467,276.464447 1374.355713,275.077820 
	C1373.703491,276.570587 1371.805542,278.065521 1368.611450,279.396851 
z"/>
<path fill="#778E79" opacity="1.000000" stroke="none" 
	d="
M1264.853027,335.700928 
	C1265.420288,334.151520 1267.272095,332.664307 1270.361328,331.134979 
	C1269.778442,332.649628 1267.957886,334.206329 1264.853027,335.700928 
z"/>
<path fill="#78907B" opacity="1.000000" stroke="none" 
	d="
M3488.784668,204.555527 
	C3490.530273,204.018692 3492.912354,204.608246 3495.979004,206.248413 
	C3494.249268,206.759979 3491.835205,206.220947 3488.784668,204.555527 
z"/>
<path fill="#778E79" opacity="1.000000" stroke="none" 
	d="
M1292.838745,319.678284 
	C1293.441284,318.182343 1295.324585,316.766022 1298.447510,315.279419 
	C1297.831177,316.725403 1295.975464,318.241638 1292.838745,319.678284 
z"/>
<path fill="#778E79" opacity="1.000000" stroke="none" 
	d="
M1300.666748,315.505920 
	C1301.209717,313.923645 1303.057861,312.449310 1306.145020,310.916687 
	C1305.579956,312.443542 1303.776001,314.028687 1300.666748,315.505920 
z"/>
<path fill="#78907B" opacity="1.000000" stroke="none" 
	d="
M3688.840332,300.521790 
	C3690.574951,300.164429 3692.949707,300.977051 3696.121582,302.810669 
	C3694.439453,303.118347 3691.959961,302.405060 3688.840332,300.521790 
z"/>
<path fill="#778E79" opacity="1.000000" stroke="none" 
	d="
M1352.702637,287.561584 
	C1353.289673,285.994476 1355.172119,284.535645 1358.300537,283.058746 
	C1357.697021,284.583740 1355.847412,286.126801 1352.702637,287.561584 
z"/>
<path fill="#78907B" opacity="1.000000" stroke="none" 
	d="
M3680.907715,296.302063 
	C3682.684082,295.872437 3684.990967,296.618500 3687.911865,298.444092 
	C3686.163574,298.841705 3683.800781,298.159698 3680.907715,296.302063 
z"/>
<path fill="#78907B" opacity="1.000000" stroke="none" 
	d="
M3672.941406,292.243896 
	C3674.742188,291.749023 3677.089111,292.434204 3680.044434,294.209961 
	C3678.264404,294.675018 3675.875977,294.049500 3672.941406,292.243896 
z"/>
<path fill="#78907B" opacity="1.000000" stroke="none" 
	d="
M3657.190918,283.966919 
	C3659.040039,283.463806 3661.323242,284.202362 3664.207520,286.009186 
	C3662.413818,286.454498 3660.019775,285.831543 3657.190918,283.966919 
z"/>
<path fill="#78907B" opacity="1.000000" stroke="none" 
	d="
M3665.045410,288.122589 
	C3666.834473,287.669617 3669.123291,288.421021 3672.053711,290.217529 
	C3670.312012,290.617371 3667.928955,289.972168 3665.045410,288.122589 
z"/>
<path fill="#778E79" opacity="1.000000" stroke="none" 
	d="
M1432.718750,247.583557 
	C1433.408081,246.118195 1435.381104,244.797531 1438.590088,243.437302 
	C1437.884888,244.841232 1435.943604,246.284729 1432.718750,247.583557 
z"/>
<path fill="#778E79" opacity="1.000000" stroke="none" 
	d="
M1540.517822,199.250092 
	C1541.287842,197.781525 1543.338379,196.577469 1546.646729,195.447815 
	C1545.869141,196.853027 1543.833740,198.183823 1540.517822,199.250092 
z"/>
<path fill="#778E79" opacity="1.000000" stroke="none" 
	d="
M1512.524658,211.217102 
	C1513.265015,209.695709 1515.286255,208.439957 1518.562134,207.266174 
	C1517.813110,208.726349 1515.809448,210.104538 1512.524658,211.217102 
z"/>
<path fill="#78907B" opacity="1.000000" stroke="none" 
	d="
M3516.221191,216.301208 
	C3517.989014,215.823334 3520.552002,216.466370 3523.863281,218.216278 
	C3522.079590,218.689453 3519.548340,218.055771 3516.221191,216.301208 
z"/>
<path fill="#778E79" opacity="1.000000" stroke="none" 
	d="
M1484.640381,223.438843 
	C1485.348877,221.953217 1487.340454,220.645691 1490.594238,219.387589 
	C1489.878662,220.830322 1487.901001,222.223633 1484.640381,223.438843 
z"/>
<path fill="#778E79" opacity="1.000000" stroke="none" 
	d="
M1476.591797,227.368378 
	C1477.238525,225.806503 1479.179688,224.438354 1482.363770,223.084076 
	C1481.699951,224.585999 1479.793091,226.074051 1476.591797,227.368378 
z"/>
<path fill="#778E79" opacity="1.000000" stroke="none" 
	d="
M1467.385132,231.534973 
	C1468.206543,229.964035 1470.494873,228.464874 1474.194824,226.990158 
	C1473.354980,228.545303 1471.103638,230.076019 1467.385132,231.534973 
z"/>
<path fill="#78907B" opacity="1.000000" stroke="none" 
	d="
M3552.717773,232.705292 
	C3554.423828,232.210907 3556.792969,232.803436 3559.838867,234.454620 
	C3558.137207,234.939606 3555.759033,234.365906 3552.717773,232.705292 
z"/>
<path fill="#78907B" opacity="1.000000" stroke="none" 
	d="
M3560.807617,236.474609 
	C3562.528564,236.029541 3564.853271,236.719147 3567.859863,238.447174 
	C3566.165283,238.860153 3563.788330,238.234726 3560.807617,236.474609 
z"/>
<path fill="#778E79" opacity="1.000000" stroke="none" 
	d="
M1440.854004,243.656891 
	C1441.633545,242.147507 1443.772461,240.717743 1447.279297,239.250092 
	C1446.502563,240.720322 1444.357910,242.228424 1440.854004,243.656891 
z"/>
<path fill="#78907B" opacity="1.000000" stroke="none" 
	d="
M3568.841309,240.436157 
	C3570.608643,239.900192 3573.002441,240.503601 3576.055176,242.185577 
	C3574.298584,242.701279 3571.883057,242.138412 3568.841309,240.436157 
z"/>
<path fill="#78907B" opacity="1.000000" stroke="none" 
	d="
M3593.155762,251.997955 
	C3595.005127,251.425781 3597.319824,252.085876 3600.238770,253.810944 
	C3598.435791,254.327362 3596.028320,253.778793 3593.155762,251.997955 
z"/>
<path fill="#78907B" opacity="1.000000" stroke="none" 
	d="
M3576.953125,244.255768 
	C3578.716553,243.760956 3581.046875,244.443802 3584.059570,246.154907 
	C3582.334717,246.599930 3579.927246,246.016678 3576.953125,244.255768 
z"/>
<path fill="#778E79" opacity="1.000000" stroke="none" 
	d="
M1424.622192,251.416321 
	C1425.301758,249.875885 1427.269897,248.513031 1430.497803,247.205109 
	C1429.808594,248.704651 1427.859741,250.149277 1424.622192,251.416321 
z"/>
<path fill="#78907B" opacity="1.000000" stroke="none" 
	d="
M3585.001953,248.175201 
	C3586.808838,247.580994 3589.177979,248.174408 3592.188232,249.832214 
	C3590.407471,250.385361 3587.985840,249.874100 3585.001953,248.175201 
z"/>
<path fill="#778E79" opacity="1.000000" stroke="none" 
	d="
M1416.613525,255.401703 
	C1417.239502,253.837616 1419.161133,252.441330 1422.336304,251.056671 
	C1421.696289,252.568710 1419.802856,254.069092 1416.613525,255.401703 
z"/>
<path fill="#778E79" opacity="1.000000" stroke="none" 
	d="
M1238.825439,350.962952 
	C1238.706055,349.858582 1239.907471,348.691223 1242.388672,347.377136 
	C1242.494507,348.453583 1241.320435,349.676788 1238.825439,350.962952 
z"/>
<path fill="#778E79" opacity="1.000000" stroke="none" 
	d="
M1590.814209,178.781006 
	C1590.887817,177.693161 1592.340820,176.681900 1595.170044,175.669250 
	C1595.095337,176.731110 1593.644531,177.794342 1590.814209,178.781006 
z"/>
<path fill="#666666" opacity="1.000000" stroke="none" 
	d="
M4201.218750,4346.893555 
	C4198.663086,4342.697266 4196.650879,4338.394043 4196.199707,4333.932617 
	C4195.531738,4327.333984 4195.945312,4320.622559 4195.945312,4313.959473 
	C4195.940918,3996.768555 4195.973633,3679.577637 4195.883789,3362.386719 
	C4195.875977,3334.238037 4199.382812,3341.686523 4178.616211,3320.896240 
	C4052.407959,3194.544922 3926.096436,3068.297119 3799.865723,2941.968506 
	C3794.799561,2936.898193 3788.940186,2932.409424 3785.567383,2926.093750 
	C3799.790771,2908.670898 4170.793945,2538.170654 4184.176270,2528.161865 
	C4187.435059,2530.724609 4191.254883,2533.191406 4194.426758,2536.315430 
	C4209.144043,2550.810303 4223.678223,2565.490967 4238.284180,2580.099365 
	C4427.215332,2769.064697 4616.145020,2958.031738 4805.097168,3146.976562 
	C4810.135254,3152.014404 4815.424316,3156.801514 4820.749512,3161.850830 
	C4825.912109,3157.095947 4824.011719,3152.203857 4824.020508,3147.944092 
	C4824.148926,3086.638428 4824.064941,3025.332764 4824.169434,2964.026855 
	C4824.181641,2956.861084 4822.998535,2949.467529 4826.325195,2941.459961 
	C4830.194336,2940.963867 4834.001465,2940.062256 4837.810547,2940.051270 
	C4876.459961,2939.940186 4915.108887,2939.958496 4953.758301,2939.984619 
	C4959.714844,2939.988770 4966.127441,2939.072266 4970.604980,2947.034668 
	C4966.734375,2974.984375 4961.575684,3002.053955 4954.440430,3030.932861 
	C4950.976562,3035.190186 4949.005371,3037.478760 4948.132324,3040.128906 
	C4947.190918,3042.986328 4947.277344,3046.182617 4946.915039,3049.230957 
	C4946.479980,3050.553467 4946.044922,3051.875977 4944.852539,3055.531006 
	C4944.146484,3061.979736 4944.198242,3066.095947 4944.249512,3070.212158 
	C4944.249512,3070.212158 4944.705566,3069.912598 4943.693359,3071.263184 
	C4940.395020,3079.433838 4937.782227,3086.163330 4935.877441,3093.087891 
	C4924.881836,3133.054443 4914.321777,3173.143555 4902.940918,3212.999023 
	C4900.696777,3220.857910 4899.709473,3228.395752 4900.291992,3236.347168 
	C4900.291992,3236.347168 4900.241211,3236.033203 4899.169922,3236.768799 
	C4897.506836,3241.138428 4896.916016,3244.772705 4896.325195,3248.406738 
	C4896.325195,3248.406738 4896.206543,3248.105713 4895.037109,3248.884521 
	C4887.906738,3256.917236 4887.470215,3265.436523 4888.238770,3274.232178 
	C4888.238770,3274.232178 4888.970215,3274.149902 4887.603027,3275.380127 
	C4878.338867,3282.196045 4880.070801,3290.438477 4880.263672,3298.256104 
	C4880.263672,3298.256104 4880.969727,3298.178711 4879.647461,3299.362305 
	C4869.609375,3306.740967 4872.265625,3315.847412 4872.251953,3324.270508 
	C4872.251953,3324.270508 4872.584961,3324.024658 4871.853516,3324.344971 
	C4870.731445,3325.079590 4870.339844,3325.493896 4869.948730,3325.908203 
	C4870.740723,3326.654053 4871.533203,3327.399902 4872.325195,3328.145508 
	C4871.894531,3330.344238 4871.463379,3332.543213 4869.329102,3335.637207 
	C4867.140625,3336.839600 4866.655273,3337.146240 4866.169434,3337.453125 
	C4866.805176,3338.313477 4867.440918,3339.174072 4868.076660,3340.034668 
	C4860.614258,3361.249756 4853.559082,3382.618896 4845.607422,3403.648682 
	C4826.842773,3453.279053 4806.413086,3502.224365 4781.389160,3551.518555 
	C4776.515137,3555.666260 4773.195801,3558.104004 4771.519043,3561.381836 
	C4759.297852,3585.276367 4747.455078,3609.364502 4735.369141,3633.329102 
	C4732.934082,3638.157227 4731.402344,3642.992432 4732.536133,3648.412598 
	C4732.536133,3648.412598 4732.247070,3647.952393 4731.269043,3648.645020 
	C4729.674805,3651.740967 4729.058594,3654.144531 4728.442383,3656.547852 
	C4728.442383,3656.547852 4728.222168,3656.272217 4727.183594,3656.871094 
	C4725.542969,3660.068604 4724.941406,3662.667236 4724.339844,3665.265869 
	C4724.339844,3665.265869 4724.427734,3666.690186 4722.770508,3667.538574 
	C4712.041504,3675.545654 4707.812988,3684.910400 4708.334473,3696.438965 
	C4708.334473,3696.438965 4708.265137,3696.112061 4707.271484,3696.683594 
	C4705.631836,3699.649902 4704.985352,3702.044922 4704.338867,3704.439697 
	C4704.338867,3704.439697 4704.509766,3704.170166 4703.144043,3704.289062 
	C4691.169434,3713.864258 4685.789062,3724.979004 4684.335938,3740.441650 
	C4684.335938,3740.441650 4684.457031,3740.131592 4683.092773,3740.267090 
	C4671.692383,3747.079346 4668.077637,3756.828125 4668.318848,3768.422607 
	C4668.318848,3768.422607 4668.442871,3768.119629 4667.062500,3768.260986 
	C4657.083496,3772.535645 4655.507324,3779.932861 4656.359863,3788.458740 
	C4656.359863,3788.458740 4656.471191,3788.134033 4655.088867,3788.276855 
	C4644.990234,3792.458740 4643.663574,3799.978271 4644.289551,3808.416992 
	C4644.289551,3808.416992 4644.179688,3808.101562 4643.316406,3808.489746 
	C4641.697266,3810.071777 4640.941406,3811.265381 4640.185547,3812.458984 
	C4640.185547,3812.459229 4640.189453,3812.085205 4639.221680,3812.680176 
	C4637.622559,3815.665771 4636.991699,3818.056641 4636.361328,3820.447266 
	C4636.360840,3820.447266 4636.254395,3820.125488 4635.266602,3820.688232 
	C4633.589355,3823.627686 4632.900391,3826.004639 4632.211426,3828.381348 
	C4632.211426,3828.381348 4632.175781,3828.050781 4631.085938,3828.138428 
	C4624.299316,3831.164795 4624.299316,3831.164795 4628.038574,3836.020996 
	C4620.766602,3847.919922 4613.767090,3859.995850 4606.177246,3871.688721 
	C4561.546875,3940.449951 4513.580566,4006.845459 4462.155762,4070.652832 
	C4424.553711,4117.308594 4385.591797,4162.841797 4344.619141,4206.652344 
	C4309.587402,4244.110352 4273.958984,4280.945801 4236.797852,4316.280273 
	C4225.720703,4326.812988 4213.926758,4336.591797 4201.218750,4346.893555 
z"/>
<path fill="#797A7A" opacity="1.000000" stroke="none" 
	d="
M4901.576172,3235.636719 
	C4899.709473,3228.395752 4900.696777,3220.857910 4902.940918,3212.999023 
	C4914.321777,3173.143555 4924.881836,3133.054443 4935.877441,3093.087891 
	C4937.782227,3086.163330 4940.395020,3079.433838 4943.867188,3071.473633 
	C4943.229980,3081.975098 4942.431641,3093.890869 4939.400879,3105.209473 
	C4927.783203,3148.601562 4918.023926,3192.531494 4901.576172,3235.636719 
z"/>
<path fill="#757676" opacity="1.000000" stroke="none" 
	d="
M4733.913086,3648.140869 
	C4731.402344,3642.992432 4732.934082,3638.157227 4735.369141,3633.329102 
	C4747.455078,3609.364502 4759.297852,3585.276367 4771.519043,3561.381836 
	C4773.195801,3558.104004 4776.515137,3555.666260 4780.562500,3552.560059 
	C4775.842773,3566.053223 4770.009766,3580.010254 4763.333496,3593.551758 
	C4754.324707,3611.824707 4744.668457,3629.778320 4733.913086,3648.140869 
z"/>
<path fill="#757676" opacity="1.000000" stroke="none" 
	d="
M4685.482422,3739.710449 
	C4685.789062,3724.979004 4691.169434,3713.864258 4703.239258,3704.416992 
	C4698.676270,3715.944092 4692.652344,3727.461426 4685.482422,3739.710449 
z"/>
<path fill="#757676" opacity="1.000000" stroke="none" 
	d="
M4709.480469,3695.716064 
	C4707.812988,3684.910400 4712.041504,3675.545654 4722.512207,3668.203857 
	C4722.103516,3678.301758 4716.200684,3686.566406 4709.480469,3695.716064 
z"/>
<path fill="#757676" opacity="1.000000" stroke="none" 
	d="
M4669.426758,3767.655273 
	C4668.077637,3756.828125 4671.692383,3747.079346 4683.198242,3740.395996 
	C4679.957031,3749.221924 4675.245605,3758.054932 4669.426758,3767.655273 
z"/>
<path fill="#797A7A" opacity="1.000000" stroke="none" 
	d="
M4889.549805,3273.346191 
	C4887.470215,3265.436523 4887.906738,3256.917236 4895.198242,3248.868164 
	C4897.598145,3256.889648 4893.862305,3264.589600 4889.549805,3273.346191 
z"/>
<path fill="#797A7A" opacity="1.000000" stroke="none" 
	d="
M4873.490234,3323.462646 
	C4872.265625,3315.847412 4869.609375,3306.740967 4879.746582,3299.703369 
	C4879.020996,3306.792236 4876.874512,3314.723389 4873.490234,3323.462646 
z"/>
<path fill="#757676" opacity="1.000000" stroke="none" 
	d="
M4657.501953,3787.780762 
	C4655.507324,3779.932861 4657.083496,3772.535645 4667.165527,3768.387695 
	C4665.314453,3774.616455 4661.979492,3780.859619 4657.501953,3787.780762 
z"/>
<path fill="#757676" opacity="1.000000" stroke="none" 
	d="
M4645.368652,3807.650146 
	C4643.663574,3799.978271 4644.990234,3792.458740 4655.192383,3788.414062 
	C4653.268066,3794.566406 4649.857910,3800.724854 4645.368652,3807.650146 
z"/>
<path fill="#797A7A" opacity="1.000000" stroke="none" 
	d="
M4948.531250,3049.503906 
	C4947.277344,3046.182617 4947.190918,3042.986328 4948.132324,3040.128906 
	C4949.005371,3037.478760 4950.976562,3035.190186 4953.914062,3032.447754 
	C4953.625000,3038.028076 4951.886230,3043.902344 4948.531250,3049.503906 
z"/>
<path fill="#797A7A" opacity="1.000000" stroke="none" 
	d="
M4881.458496,3297.701660 
	C4880.070801,3290.438477 4878.338867,3282.196045 4887.707031,3275.732910 
	C4888.879395,3276.919434 4888.580078,3278.983398 4886.986816,3283.260986 
	C4885.432129,3286.878174 4885.171387,3288.281738 4884.910645,3289.685059 
	C4884.158203,3292.172607 4883.405762,3294.659912 4881.458496,3297.701660 
z"/>
<path fill="#757676" opacity="1.000000" stroke="none" 
	d="
M4628.813477,3835.178223 
	C4624.299316,3831.164795 4624.299316,3831.164795 4631.225586,3828.228516 
	C4631.500000,3830.266113 4630.544434,3832.300781 4628.813477,3835.178223 
z"/>
<path fill="#797A7A" opacity="1.000000" stroke="none" 
	d="
M4897.576172,3247.734863 
	C4896.916016,3244.772705 4897.506836,3241.138428 4899.326172,3236.796387 
	C4899.978516,3239.746338 4899.402832,3243.404785 4897.576172,3247.734863 
z"/>
<path fill="#797A7A" opacity="1.000000" stroke="none" 
	d="
M4945.712891,3069.253418 
	C4944.198242,3066.095947 4944.146484,3061.979736 4944.191406,3055.804199 
	C4947.361816,3053.942383 4949.212402,3055.656982 4948.976562,3058.653320 
	C4948.721191,3061.894287 4947.804199,3065.083252 4945.712891,3069.253418 
z"/>
<path fill="#757676" opacity="1.000000" stroke="none" 
	d="
M4725.451660,3664.497559 
	C4724.941406,3662.667236 4725.542969,3660.068604 4727.343750,3656.798340 
	C4727.883301,3658.660889 4727.223145,3661.195068 4725.451660,3664.497559 
z"/>
<path fill="#757676" opacity="1.000000" stroke="none" 
	d="
M4705.416992,3703.805908 
	C4704.985352,3702.044922 4705.631836,3699.649902 4707.438477,3696.691895 
	C4707.897949,3698.476807 4707.196777,3700.824463 4705.416992,3703.805908 
z"/>
<path fill="#757676" opacity="1.000000" stroke="none" 
	d="
M4729.686523,3656.033447 
	C4729.058594,3654.144531 4729.674805,3651.740967 4731.479492,3648.817139 
	C4732.088379,3650.704102 4731.509277,3653.111572 4729.686523,3656.033447 
z"/>
<path fill="#757676" opacity="1.000000" stroke="none" 
	d="
M4637.463379,3819.852051 
	C4636.991699,3818.056641 4637.622559,3815.665771 4639.405762,3812.710938 
	C4639.894043,3814.516846 4639.229980,3816.886719 4637.463379,3819.852051 
z"/>
<path fill="#757676" opacity="1.000000" stroke="none" 
	d="
M4633.178223,3827.633057 
	C4632.900391,3826.004639 4633.589355,3823.627686 4635.435059,3820.703125 
	C4635.776367,3822.398682 4634.960938,3824.641846 4633.178223,3827.633057 
z"/>
<path fill="#797A7A" opacity="1.000000" stroke="none" 
	d="
M4868.487305,3339.128418 
	C4867.440918,3339.174072 4866.805176,3338.313477 4866.169434,3337.453125 
	C4866.655273,3337.146240 4867.140625,3336.839600 4868.497070,3336.410645 
	C4869.367676,3336.288818 4868.897949,3338.222168 4868.487305,3339.128418 
z"/>
<path fill="#797A7A" opacity="1.000000" stroke="none" 
	d="
M4872.669922,3327.225586 
	C4871.533203,3327.399902 4870.740723,3326.654053 4869.948730,3325.908203 
	C4870.339844,3325.493896 4870.731445,3325.079590 4871.983398,3324.506348 
	C4872.843750,3324.347412 4873.014648,3326.305420 4872.669922,3327.225586 
z"/>
<path fill="#666666" opacity="1.000000" stroke="none" 
	d="
M4885.715332,3288.938965 
	C4885.171387,3288.281738 4885.432129,3286.878174 4886.506348,3284.747314 
	C4887.053223,3285.410889 4886.786621,3286.801758 4885.715332,3288.938965 
z"/>
<path fill="#757676" opacity="1.000000" stroke="none" 
	d="
M4641.276367,3812.183594 
	C4640.941406,3811.265381 4641.697266,3810.071777 4643.480957,3808.520020 
	C4643.794922,3809.410645 4643.081055,3810.659180 4641.276367,3812.183594 
z"/>
</svg>